<svg width="131" height="121" viewBox="0 0 131 121" fill="none" xmlns="http://www.w3.org/2000/svg">
<path d="M32.72 11.1196V0.639648H110.81V78.7698H32.71V37.4897H42.8V68.1897H100.27V11.1196H32.72Z" fill="white"/>
<path d="M13.1296 113.524C12.6295 114.24 11.9301 114.777 11.0313 115.136C10.1393 115.487 9.09857 115.663 7.9092 115.663C6.70631 115.663 5.63857 115.382 4.706 114.821C3.77342 114.254 3.05033 113.45 2.53674 112.409C2.0299 111.368 1.76973 110.162 1.75621 108.79V107.503C1.75621 105.279 2.27318 103.556 3.30713 102.333C4.34783 101.11 5.80752 100.498 7.68619 100.498C9.22697 100.498 10.467 100.893 11.4064 101.684C12.3457 102.468 12.9201 103.583 13.1296 105.029H11.1834C10.8184 103.076 9.65609 102.1 7.69633 102.1C6.39207 102.1 5.40205 102.559 4.72627 103.478C4.05725 104.391 3.71936 105.715 3.7126 107.452V108.658C3.7126 110.314 4.09104 111.632 4.84791 112.612C5.60479 113.585 6.62859 114.071 7.91934 114.071C8.64918 114.071 9.28779 113.99 9.83518 113.828C10.3826 113.666 10.8353 113.392 11.1935 113.007V109.692H7.77742V108.111H13.1296V113.524ZM21.7965 109.489H18.3297V115.46H16.3734V100.701H21.2593C22.9217 100.701 24.1989 101.079 25.0909 101.836C25.9897 102.593 26.4391 103.695 26.4391 105.141C26.4391 106.06 26.1891 106.861 25.689 107.543C25.1957 108.226 24.5064 108.736 23.6211 109.074L27.0879 115.338V115.46H24.9997L21.7965 109.489ZM18.3297 107.898H21.3201C22.2864 107.898 23.0535 107.648 23.6211 107.148C24.1955 106.648 24.4827 105.979 24.4827 105.141C24.4827 104.228 24.209 103.529 23.6617 103.042C23.121 102.556 22.3371 102.309 21.3099 102.302H18.3297V107.898ZM39.5662 100.701V110.736C39.5594 112.128 39.1202 113.267 38.2484 114.152C37.3834 115.038 36.2075 115.534 34.7208 115.642L34.2038 115.663C32.5887 115.663 31.3014 115.227 30.3418 114.355C29.3821 113.483 28.8956 112.284 28.8821 110.757V100.701H30.808V110.696C30.808 111.763 31.102 112.595 31.6899 113.189C32.2779 113.777 33.1158 114.071 34.2038 114.071C35.3054 114.071 36.1467 113.777 36.7279 113.189C37.3158 112.601 37.6098 111.774 37.6098 110.706V100.701H39.5662ZM44.5838 109.682V115.46H42.6376V100.701H48.081C49.6961 100.701 50.9598 101.113 51.8721 101.938C52.7912 102.762 53.2507 103.853 53.2507 105.212C53.2507 106.644 52.8013 107.749 51.9026 108.526C51.0105 109.297 49.7299 109.682 48.0607 109.682H44.5838ZM44.5838 108.091H48.081C49.1217 108.091 49.9191 107.847 50.4733 107.361C51.0274 106.867 51.3045 106.158 51.3045 105.232C51.3045 104.353 51.0274 103.651 50.4733 103.124C49.9191 102.596 49.1589 102.323 48.1925 102.302H44.5838V108.091ZM67.0874 108.557C67.0874 110.003 66.8441 111.267 66.3575 112.348C65.871 113.422 65.1817 114.244 64.2896 114.811C63.3976 115.379 62.3569 115.663 61.1675 115.663C60.0052 115.663 58.9746 115.379 58.0758 114.811C57.177 114.237 56.4776 113.422 55.9775 112.368C55.4842 111.307 55.2308 110.081 55.2173 108.689V107.624C55.2173 106.205 55.4639 104.952 55.9572 103.864C56.4506 102.776 57.1466 101.944 58.0454 101.37C58.951 100.789 59.9849 100.498 61.1472 100.498C62.3299 100.498 63.3706 100.785 64.2694 101.36C65.1749 101.927 65.871 102.755 66.3575 103.843C66.8441 104.925 67.0874 106.185 67.0874 107.624V108.557ZM65.1513 107.604C65.1513 105.854 64.7998 104.512 64.097 103.58C63.3942 102.64 62.411 102.171 61.1472 102.171C59.9173 102.171 58.9476 102.64 58.238 103.58C57.5352 104.512 57.1737 105.81 57.1534 107.472V108.557C57.1534 110.253 57.5082 111.588 58.2177 112.561C58.9341 113.527 59.9173 114.01 61.1675 114.01C62.4245 114.01 63.3976 113.554 64.0869 112.642C64.7762 111.723 65.131 110.408 65.1513 108.699V107.604ZM77.1024 109.682V115.46H75.1562V100.701H80.5996C82.2147 100.701 83.4784 101.113 84.3907 101.938C85.3098 102.762 85.7693 103.853 85.7693 105.212C85.7693 106.644 85.3199 107.749 84.4212 108.526C83.5291 109.297 82.2485 109.682 80.5793 109.682H77.1024ZM77.1024 108.091H80.5996C81.6403 108.091 82.4377 107.847 82.9919 107.361C83.546 106.867 83.8231 106.158 83.8231 105.232C83.8231 104.353 83.546 103.651 82.9919 103.124C82.4377 102.596 81.6775 102.323 80.7111 102.302H77.1024V108.091ZM95.0039 111.608H88.8205L87.4318 115.46H85.4247L91.0607 100.701H92.7637L98.4098 115.46H96.4129L95.0039 111.608ZM89.4084 110.006H94.4261L91.9122 103.103L89.4084 110.006ZM109.276 102.302H104.532V115.46H102.596V102.302H97.8624V100.701H109.276V102.302ZM113.554 115.46H111.608V100.701H113.554V115.46ZM128.475 108.557C128.475 110.003 128.232 111.267 127.745 112.348C127.259 113.422 126.57 114.244 125.678 114.811C124.786 115.379 123.745 115.663 122.555 115.663C121.393 115.663 120.363 115.379 119.464 114.811C118.565 114.237 117.866 113.422 117.365 112.368C116.872 111.307 116.619 110.081 116.605 108.689V107.624C116.605 106.205 116.852 104.952 117.345 103.864C117.839 102.776 118.535 101.944 119.433 101.37C120.339 100.789 121.373 100.498 122.535 100.498C123.718 100.498 124.759 100.785 125.657 101.36C126.563 101.927 127.259 102.755 127.745 103.843C128.232 104.925 128.475 106.185 128.475 107.624V108.557ZM126.539 107.604C126.539 105.854 126.188 104.512 125.485 103.58C124.782 102.64 123.799 102.171 122.535 102.171C121.305 102.171 120.336 102.64 119.626 103.58C118.923 104.512 118.562 105.81 118.541 107.472V108.557C118.541 110.253 118.896 111.588 119.606 112.561C120.322 113.527 121.305 114.01 122.555 114.01C123.812 114.01 124.786 113.554 125.475 112.642C126.164 111.723 126.519 110.408 126.539 108.699V107.604Z" fill="white"/>
</svg>
