<?xml version="1.0" encoding="utf-8"?>
<!-- Generator: Adobe Illustrator 27.0.0, SVG Export Plug-In . SVG Version: 6.00 Build 0)  -->
<svg version="1.1" id="Capa_1" xmlns="http://www.w3.org/2000/svg" xmlns:xlink="http://www.w3.org/1999/xlink" x="0px" y="0px"
	 viewBox="0 0 331.86 242.3" style="enable-background:new 0 0 331.86 242.3;" xml:space="preserve">
<style type="text/css">
	.st0{fill:#2EADE4;}
</style>
<g>
	<path class="st0" d="M278.33,214.67H164.34c-0.7,0-1.39-0.29-1.89-0.78c-0.49-0.5-0.78-1.19-0.78-1.89v-68.02
		c0-1.47,1.19-2.67,2.67-2.67s2.67,1.2,2.67,2.67v65.36h108.66l0-114.19l-54.32-50.67L167,95.15v22.16c0,1.47-1.19,2.67-2.67,2.67
		s-2.67-1.19-2.67-2.67V93.99c0-0.75,0.3-1.44,0.85-1.95l57.01-53.17c0.99-0.92,2.65-0.92,3.64,0.01l56.99,53.16
		c0.55,0.51,0.85,1.2,0.85,1.95v118.02c0,0.71-0.28,1.38-0.78,1.89C279.71,214.4,279.04,214.68,278.33,214.67L278.33,214.67z
		 M164.34,133.31c-1.47,0-2.67-1.19-2.67-2.67c0-1.47,1.19-2.67,2.67-2.67s2.67,1.2,2.67,2.67
		C167.01,132.12,165.81,133.31,164.34,133.31z"/>
	<path class="st0" d="M295.49,112.62c-0.68,0-1.33-0.25-1.82-0.72l-72.32-67.42L162.4,99.43c-0.5,0.46-1.15,0.71-1.82,0.71
		c-0.74,0-1.45-0.31-1.95-0.85c-0.49-0.52-0.74-1.2-0.71-1.91c0.03-0.71,0.33-1.37,0.85-1.85l60.77-56.65
		c0.99-0.92,2.65-0.92,3.64,0.01l69.65,64.93v-6.91l-71.47-66.68l-71.49,66.68v4.67c0,1.47-1.2,2.67-2.67,2.67
		c-1.47,0-2.67-1.2-2.67-2.67v-5.83c0-0.75,0.3-1.44,0.85-1.95l74.16-69.16c0.99-0.93,2.65-0.93,3.64,0l74.13,69.16
		c0.55,0.51,0.85,1.21,0.85,1.95v14.2c0,1.06-0.63,2.02-1.61,2.45C296.21,112.55,295.86,112.62,295.49,112.62L295.49,112.62z
		 M150.83,109.24c-0.74,0-1.45-0.31-1.95-0.85c-0.49-0.53-0.74-1.2-0.71-1.91c0.03-0.71,0.33-1.37,0.85-1.86
		c0.49-0.46,1.14-0.71,1.82-0.71c0.73,0,1.45,0.31,1.95,0.85c0.49,0.52,0.74,1.2,0.71,1.91c-0.02,0.71-0.32,1.37-0.84,1.86
		C152.15,108.98,151.5,109.24,150.83,109.24z"/>
	<path class="st0" d="M273.46,77.88c-0.67,0-1.32-0.25-1.82-0.72l-12.71-11.87c-0.55-0.51-0.85-1.21-0.85-1.95v-9.72
		c0-0.7,0.28-1.39,0.78-1.89c0.5-0.49,1.19-0.78,1.89-0.78h12.71c0.71,0,1.39,0.29,1.89,0.78c0.49,0.5,0.78,1.19,0.78,1.89v21.59
		c0,1.06-0.63,2.02-1.61,2.45C274.18,77.81,273.82,77.88,273.46,77.88L273.46,77.88z M263.41,62.19l7.37,6.89V56.29l-7.37,0V62.19z"
		/>
	<path class="st0" d="M164.35,214.67H46.57c-0.71,0-1.39-0.29-1.89-0.78c-0.5-0.5-0.78-1.19-0.78-1.89v-15.83
		c0-0.71,0.28-1.39,0.78-1.89c1.46-1.47,2.27-3.41,2.27-5.46c0-2.06-0.8-3.97-2.25-5.39c-0.51-0.5-0.8-1.2-0.8-1.91v-31.66
		c0-0.7,0.28-1.39,0.78-1.88c0.49-0.5,1.18-0.79,1.89-0.79h117.77c0.7,0,1.39,0.29,1.89,0.79c0.49,0.49,0.78,1.18,0.78,1.88v0.71
		c0,1.47-1.19,2.67-2.67,2.67c-0.67,0-1.31-0.25-1.81-0.71H49.24v27.95c1.97,2.31,3.05,5.28,3.05,8.35c0,3.05-1.08,6.02-3.05,8.37
		v12.13h112.44v-32.09c0-1.47,1.19-2.67,2.67-2.67s2.67,1.19,2.67,2.67V212c0,0.71-0.28,1.38-0.78,1.89
		C165.72,214.39,165.06,214.67,164.35,214.67L164.35,214.67z M164.35,166.59c-1.47,0-2.67-1.2-2.67-2.67c0-1.47,1.19-2.67,2.67-2.67
		s2.67,1.19,2.67,2.67C167.01,165.39,165.82,166.59,164.35,166.59z"/>
	<path class="st0" d="M164.35,152.55H33.42c-0.99,0-1.89-0.54-2.35-1.41c-0.47-0.87-0.41-1.92,0.13-2.74l13.15-19.7
		c0.49-0.75,1.33-1.19,2.22-1.19h117.77c0.71,0,1.39,0.28,1.89,0.78c0.49,0.49,0.78,1.18,0.78,1.89v19.7c0,0.71-0.28,1.39-0.78,1.89
		C165.72,152.27,165.06,152.55,164.35,152.55L164.35,152.55z M38.41,147.22h123.27v-14.38H48L38.41,147.22z"/>
	<path class="st0" d="M164.35,132.85H72.23c-0.93,0-1.77-0.47-2.26-1.25c-0.49-0.78-0.55-1.74-0.15-2.57l6.95-14.42
		c0.44-0.92,1.39-1.51,2.4-1.51h85.18c0.7,0,1.39,0.28,1.89,0.78c0.49,0.49,0.78,1.18,0.78,1.89v14.42c0,0.71-0.28,1.38-0.78,1.88
		C165.73,132.57,165.06,132.85,164.35,132.85L164.35,132.85z M76.47,127.51h85.21v-9.09l-80.83,0L76.47,127.51z"/>
	<path class="st0" d="M89.04,214.67H66.36c-0.7,0-1.39-0.29-1.89-0.78c-0.49-0.5-0.78-1.19-0.78-1.89v-44.45
		c0-0.71,0.29-1.39,0.78-1.89c0.5-0.5,1.19-0.78,1.89-0.78h22.69c0.7,0,1.39,0.28,1.89,0.78c0.49,0.49,0.78,1.18,0.78,1.89v44.45
		c0,0.71-0.28,1.38-0.78,1.89C90.43,214.39,89.76,214.67,89.04,214.67z M69.02,209.34h17.35v-39.12H69.02V209.34z"/>
	<path class="st0" d="M150.25,197.57h-46.65c-0.7,0-1.39-0.29-1.89-0.79c-0.49-0.49-0.78-1.18-0.78-1.88v-27.35
		c0-0.71,0.29-1.39,0.78-1.89c0.5-0.5,1.19-0.78,1.89-0.78h46.65c0.7,0,1.39,0.28,1.89,0.78c0.49,0.49,0.78,1.18,0.78,1.89v27.35
		c0,0.71-0.28,1.38-0.78,1.88C151.63,197.29,150.96,197.57,150.25,197.57z M106.26,192.24h41.32v-22.02h-41.32V192.24z"/>
	<path class="st0" d="M150.25,179.8h-40.03c-1.47,0-2.67-1.19-2.67-2.67c0-1.47,1.19-2.67,2.67-2.67h40.03
		c1.47,0,2.67,1.2,2.67,2.67C152.91,178.61,151.72,179.8,150.25,179.8z"/>
	<path class="st0" d="M150.25,187.77h-40.03c-1.47,0-2.67-1.2-2.67-2.67c0-1.47,1.2-2.67,2.67-2.67h40.03
		c1.47,0,2.67,1.19,2.67,2.67C152.91,186.57,151.72,187.77,150.25,187.77z"/>
	<path class="st0" d="M209.37,169.34h-23.96c-0.7,0-1.39-0.29-1.89-0.78c-0.49-0.5-0.78-1.19-0.78-1.89v-23.96
		c0-0.71,0.29-1.39,0.78-1.89c0.5-0.5,1.19-0.79,1.89-0.79h23.96c0.7,0,1.39,0.29,1.89,0.79c0.49,0.49,0.78,1.18,0.78,1.89v23.96
		c0,0.71-0.28,1.38-0.78,1.89C210.75,169.06,210.08,169.34,209.37,169.34z M188.07,164.01h18.63v-18.64h-18.63V164.01z"/>
	<path class="st0" d="M233.33,169.34h-23.96c-0.7,0-1.39-0.29-1.89-0.78c-0.49-0.5-0.78-1.19-0.78-1.89v-23.97
		c0-0.7,0.29-1.39,0.78-1.88c0.5-0.5,1.19-0.79,1.89-0.79h23.96c0.71,0,1.39,0.29,1.89,0.79c0.5,0.49,0.78,1.18,0.78,1.88v23.97
		c0,0.71-0.27,1.38-0.78,1.89C234.72,169.06,234.04,169.34,233.33,169.34z M212.03,164.01h18.63v-18.64h-18.63V164.01z"/>
	<path class="st0" d="M257.3,169.34h-23.96c-0.7,0-1.39-0.29-1.89-0.78c-0.49-0.5-0.78-1.19-0.78-1.89v-23.97
		c0-0.7,0.29-1.39,0.78-1.88c0.5-0.5,1.19-0.79,1.89-0.79h23.96c0.71,0,1.39,0.29,1.89,0.79c0.49,0.49,0.78,1.18,0.78,1.88v23.97
		c0,0.71-0.27,1.38-0.78,1.89C258.67,169.06,258.01,169.34,257.3,169.34z M236,164.01h18.63v-18.64H236V164.01z"/>
	<path class="st0" d="M209.37,193.31h-23.96c-0.7,0-1.39-0.29-1.89-0.78c-0.49-0.5-0.78-1.19-0.78-1.89v-23.96
		c0-0.7,0.29-1.39,0.78-1.89c0.5-0.5,1.19-0.78,1.89-0.78h23.96c0.71,0,1.39,0.28,1.89,0.78c0.49,0.49,0.78,1.18,0.78,1.89v23.96
		c0,0.71-0.28,1.38-0.78,1.89C210.75,193.03,210.08,193.31,209.37,193.31z M188.07,187.97h18.63v-18.63h-18.63V187.97z"/>
	<path class="st0" d="M233.33,193.31h-23.96c-0.7,0-1.39-0.29-1.89-0.78c-0.49-0.5-0.78-1.19-0.78-1.89v-23.96
		c0-0.7,0.29-1.39,0.78-1.89c0.5-0.5,1.19-0.78,1.89-0.78h23.96c0.71,0,1.39,0.28,1.89,0.78c0.5,0.49,0.78,1.18,0.78,1.89v23.96
		c0,0.71-0.27,1.38-0.78,1.89C234.71,193.03,234.04,193.31,233.33,193.31z M212.03,187.97h18.63v-18.63h-18.63V187.97z"/>
	<path class="st0" d="M257.3,193.31h-23.96c-0.7,0-1.39-0.29-1.89-0.78c-0.49-0.5-0.78-1.19-0.78-1.89l0-23.96
		c0-0.71,0.29-1.39,0.78-1.89c0.5-0.5,1.19-0.78,1.89-0.78h23.96c0.71,0,1.39,0.28,1.89,0.78c0.49,0.5,0.78,1.19,0.78,1.89v23.96
		c0,0.71-0.27,1.38-0.78,1.89C258.67,193.03,258.01,193.31,257.3,193.31L257.3,193.31z M236,187.97h18.63v-18.63H236V187.97z"/>
	<path class="st0" d="M306.44,214.67H18.91c-1.47,0-2.67-1.2-2.67-2.67c0-1.47,1.19-2.67,2.67-2.67h287.52
		c1.47,0,2.67,1.19,2.67,2.67C309.1,213.47,307.91,214.67,306.44,214.67L306.44,214.67z"/>
	<path class="st0" d="M269.23,224.13H140.05c-1.47,0-2.67-1.19-2.67-2.67s1.2-2.67,2.67-2.67h129.19c1.47,0,2.67,1.19,2.67,2.67
		C271.9,222.93,270.71,224.13,269.23,224.13L269.23,224.13z"/>
	<path class="st0" d="M84.6,223.86H23.37c-1.47,0-2.67-1.19-2.67-2.67c0-1.47,1.2-2.67,2.67-2.67H84.6c1.47,0,2.67,1.2,2.67,2.67
		C87.27,222.67,86.07,223.86,84.6,223.86z"/>
	<path class="st0" d="M105.69,86.76h-29.7c-2.14,0-4.15-0.83-5.67-2.33c-1.52-1.51-2.36-3.51-2.36-5.65c0-3.45,2.19-6.5,5.45-7.61
		c0.54-3.15,2.88-5.67,5.97-6.43c1.29-2.83,4.16-4.67,7.29-4.67h0.03c0.67,0,1.33,0.08,1.97,0.25c1.65-1.55,3.8-2.4,6.07-2.4h0.03
		c4.12,0.01,7.69,2.79,8.67,6.77c2.35,0.03,4.57,0.97,6.22,2.64c1.67,1.68,2.59,3.91,2.59,6.27c0,0.18-0.01,0.36-0.02,0.55
		c0.98,1.37,1.5,2.97,1.49,4.64c-0.01,2.14-0.84,4.15-2.36,5.65C109.84,85.93,107.83,86.76,105.69,86.76L105.69,86.76z M75.98,76.08
		c-1.53,0.01-2.69,1.17-2.69,2.69c0,1.49,1.18,2.65,2.69,2.65h29.7c1.51-0.01,2.7-1.17,2.7-2.65c-0.01-0.75-0.27-1.36-0.83-1.91
		c-0.65-0.63-0.93-1.55-0.75-2.44c0.07-0.36,0.11-0.6,0.11-0.83c-0.01-1.93-1.65-3.57-3.6-3.57c-0.46,0-0.89,0.09-1.36,0.28
		c-0.9,0.37-1.98,0.2-2.73-0.42c-0.76-0.63-1.1-1.63-0.89-2.61c0.01-0.03,0.03-0.23,0.03-0.45c0-2-1.58-3.57-3.59-3.58
		c-1.29,0.01-2.37,0.6-3.03,1.67c-0.38,0.62-0.98,1.05-1.69,1.21c-0.69,0.16-1.44,0.03-2.04-0.37c-0.39-0.25-0.8-0.35-1.34-0.36
		h-0.01c-1.29,0-2.43,0.95-2.63,2.21c-0.21,1.29-1.32,2.23-2.63,2.23h-0.11c-1.46,0.01-2.65,1.21-2.65,2.7
		c0,0.17,0.01,0.27,0.04,0.51c0.11,0.77-0.12,1.54-0.63,2.12c-0.51,0.58-1.24,0.92-2.01,0.92L75.98,76.08z"/>
	<path class="st0" d="M221.35,99.6c-4.65-0.01-9.02-1.82-12.3-5.11c-3.27-3.27-5.09-7.64-5.09-12.29c0-4.67,1.81-9.05,5.09-12.32
		c3.27-3.27,7.64-5.08,12.29-5.08h0.02c4.65,0,9.02,1.81,12.29,5.08c3.29,3.28,5.1,7.65,5.09,12.32c0,4.65-1.81,9.02-5.09,12.3
		C230.36,97.79,225.99,99.6,221.35,99.6L221.35,99.6z M221.35,70.14c-6.76,0.01-12.05,5.31-12.06,12.07
		c0,6.65,5.41,12.06,12.06,12.06c6.64-0.01,12.05-5.43,12.06-12.06C233.41,75.56,227.99,70.14,221.35,70.14z"/>
	<path class="st0" d="M154.21,91.87c-0.37,0-0.73-0.07-1.06-0.22c-0.98-0.42-1.61-1.38-1.61-2.45V56.31c0-0.7,0.29-1.39,0.78-1.89
		c0.5-0.49,1.19-0.78,1.89-0.78h35.26c1.1,0,2.07,0.67,2.48,1.69c0.4,1.03,0.14,2.17-0.67,2.93l-35.26,32.89
		C155.53,91.61,154.89,91.87,154.21,91.87L154.21,91.87z M156.88,58.98v24.09l25.82-24.09L156.88,58.98z"/>
	<path class="st0" d="M180.39,47.32h-37.88c-2.53-0.01-4.92-0.99-6.71-2.77c-1.8-1.79-2.79-4.17-2.79-6.71
		c0.01-2.1,0.68-4.09,1.95-5.75c1.23-1.61,2.98-2.8,4.91-3.36c0.51-4.01,3.51-7.25,7.46-8.08c1.46-3.59,4.91-5.92,8.79-5.92h0.02
		c0.95,0,1.87,0.14,2.77,0.41c2.01-2.03,4.69-3.14,7.54-3.14c5.11,0,9.5,3.63,10.45,8.63c0.15-0.01,0.3-0.01,0.45-0.01
		c5.85,0.01,10.62,4.79,10.62,10.67c0,0.27-0.01,0.55-0.03,0.83c1.23,1.63,1.91,3.65,1.91,5.72c-0.01,2.53-0.99,4.91-2.77,6.7
		C185.3,46.33,182.92,47.32,180.39,47.32L180.39,47.32z M142.51,33.69c-2.29,0.01-4.16,1.87-4.17,4.15
		c0.01,2.32,1.83,4.14,4.17,4.15h37.88c2.31-0.01,4.12-1.83,4.13-4.15c0-1.13-0.45-2.21-1.23-2.97c-0.66-0.64-0.95-1.56-0.76-2.46
		c0.08-0.37,0.13-0.77,0.13-1.13c-0.01-2.94-2.38-5.33-5.29-5.33h-0.01c-0.69,0-1.37,0.13-1.97,0.39c-0.87,0.38-1.93,0.25-2.69-0.34
		c-0.77-0.59-1.15-1.56-1-2.52c0.05-0.32,0.08-0.62,0.08-0.87c-0.01-2.91-2.39-5.28-5.31-5.29c-1.84,0-3.51,0.93-4.49,2.49
		c-0.49,0.79-1.33,1.25-2.26,1.25c-0.49,0-0.99-0.14-1.41-0.41c-0.67-0.41-1.36-0.61-2.17-0.61c-2.03,0-3.75,1.47-4.1,3.49
		c-0.21,1.29-1.32,2.22-2.63,2.22h-0.11c-2.29,0.01-4.15,1.87-4.15,4.15c0,0.26,0.01,0.45,0.05,0.63c0.13,0.77-0.07,1.57-0.58,2.18
		c-0.51,0.61-1.25,0.95-2.05,0.95L142.51,33.69z"/>
	<path class="st0" d="M39.31,201.84c-3.47,0-6.72-1.35-9.17-3.8c-2.45-2.45-3.79-5.72-3.8-9.19c0-7.14,5.82-12.95,12.98-12.96
		c7.15,0.01,12.98,5.82,12.98,12.96c-0.01,3.47-1.35,6.74-3.8,9.19C46.04,200.49,42.77,201.84,39.31,201.84L39.31,201.84z
		 M39.31,181.21c-4.21,0.01-7.63,3.43-7.64,7.63c0,4.21,3.43,7.65,7.64,7.66c4.21-0.01,7.64-3.45,7.64-7.66
		C46.94,184.64,43.51,181.22,39.31,181.21z"/>
	<path class="st0" d="M39.31,214.67c-1.47,0-2.67-1.2-2.67-2.67v-23.17c0-1.47,1.2-2.67,2.67-2.67c1.47,0,2.67,1.19,2.67,2.67v23.17
		C41.97,213.47,40.78,214.67,39.31,214.67z"/>
	<path class="st0" d="M293.29,201.84c-3.47-0.01-6.73-1.36-9.19-3.81c-2.45-2.45-3.8-5.71-3.81-9.19c0-7.15,5.83-12.96,12.99-12.96
		c7.15,0.01,12.98,5.82,12.98,12.96C306.26,196,300.44,201.84,293.29,201.84L293.29,201.84z M293.29,181.21
		c-4.21,0.01-7.65,3.43-7.66,7.63c0,4.22,3.44,7.66,7.66,7.66c4.21-0.01,7.64-3.45,7.65-7.66
		C300.93,184.64,297.49,181.22,293.29,181.21z"/>
	<path class="st0" d="M293.29,214.67c-1.47,0-2.67-1.2-2.67-2.67v-23.17c0-1.47,1.2-2.67,2.67-2.67c1.47,0,2.67,1.19,2.67,2.67
		v23.17C295.95,213.47,294.76,214.67,293.29,214.67z"/>
</g>
</svg>
