<?xml version="1.0" encoding="utf-8"?>
<!-- Generator: Adobe Illustrator 27.0.0, SVG Export Plug-In . SVG Version: 6.00 Build 0)  -->
<svg version="1.1" id="Capa_1" xmlns="http://www.w3.org/2000/svg" xmlns:xlink="http://www.w3.org/1999/xlink" x="0px" y="0px"
	 viewBox="0 0 331.86 242.3" style="enable-background:new 0 0 331.86 242.3;" xml:space="preserve">
<style type="text/css">
	.st0{fill:#2EADE4;}
</style>
<g>
	<path class="st0" d="M182.37,158.41l-32.94-0.01c-2.41-0.17-4.61-1.56-5.88-3.72c-1.29-2.1-1.77-4.52-2.04-6.38
		c-0.38-2.65-0.44-5.49-0.49-7.78c-0.04-1.56-0.07-2.91-0.19-3.83v-0.01c-0.4-3.13-1.14-5.63-1.94-8.29
		c-0.13-0.44-0.26-0.89-0.4-1.35c-0.87-2.98-1.82-6.58-1.96-11.45v-0.01c-0.08-2.31-0.13-4.66-0.13-6.99c0-2.29,1.05-4.51,2.89-6.08
		c1.76-1.52,4.07-2.36,6.5-2.36h40.4c2.44,0,4.75,0.84,6.51,2.36c1.84,1.58,2.89,3.8,2.89,6.1c-0.01,0.6-0.01,1.18-0.01,1.75
		c-0.02,6.79-0.03,11.69-2.5,18.97c-1.55,4.57-2.12,6.56-2.42,8.54c-0.23,1.52-0.32,3.19-0.47,5.96c-0.05,0.96-0.11,2.04-0.18,3.29
		c-0.09,1.52-0.24,3.14-0.67,4.8c-0.36,1.37-1.05,3.36-2.78,4.85c-1.08,0.94-2.51,1.51-4.02,1.62L182.37,158.41L182.37,158.41
		L182.37,158.41z M145.81,104.98c-1.27,0-2.49,0.43-3.36,1.19c-0.8,0.7-1.22,1.55-1.22,2.44c0,2.29,0.04,4.59,0.13,6.81v0.02
		c0.13,4.33,0.91,7.32,1.76,10.26c0.13,0.46,0.27,0.92,0.41,1.39c0.8,2.68,1.63,5.45,2.08,8.98l0.01,0.01
		c0.15,1.32,0.19,2.91,0.23,4.59c0.03,1.28,0.06,2.61,0.14,3.95c0.19,3.44,0.79,6.18,1.67,7.53c0.67,1,1.13,1.31,2.14,1.45h32.47
		c0.6-0.07,0.9-0.23,1.21-0.48c0.34-0.28,0.64-0.75,0.9-1.34c0.58-1.34,0.8-3.42,0.88-4.93c0.07-1.27,0.13-2.38,0.18-3.36
		c0.14-2.69,0.23-4.48,0.52-6.33c0.39-2.57,1.12-4.96,2.61-9.36c2.2-6.56,2.21-10.57,2.24-17.21c0.01-0.63,0.01-1.29,0.01-1.99
		c-0.01-0.9-0.43-1.74-1.22-2.44c-0.87-0.75-2.09-1.19-3.36-1.19L145.81,104.98L145.81,104.98z"/>
	<path class="st0" d="M185.44,180.32h-38.86c-2.85-0.02-5.01-0.33-6.62-0.96c-0.57-0.25-1.16-0.5-1.77-1.22
		c-0.17-0.19-0.7-0.89-0.69-1.87c0-1.06,0.11-3.2,0.77-5.63c0.92-3.33,2.54-5.88,4.81-7.57c1.94-1.46,4.42-2.23,7.17-2.23h31.55
		c2.74,0,5.22,0.77,7.17,2.23c1.62,1.21,2.92,2.88,3.87,4.95c1.09,2.43,1.68,5.28,1.7,8.25c0.01,0.99-0.53,1.69-0.7,1.88
		c-0.35,0.42-0.7,0.66-1.04,0.85c-0.7,0.4-1.41,0.61-2.07,0.77C189.25,180.12,187.42,180.32,185.44,180.32L185.44,180.32z
		 M146.58,175.5h38.93c1.82,0,3.33-0.22,4.15-0.43c-0.07-0.78-0.21-1.94-0.55-3.16c-0.6-2.22-1.68-3.99-3.03-4.98
		c-1.19-0.87-2.57-1.28-4.36-1.28h-31.44c-1.79,0.01-3.17,0.41-4.36,1.28c-0.96,0.7-1.74,1.74-2.35,3.07
		c-0.85,1.85-1.13,3.96-1.22,5.07c0.02,0,0.04,0.01,0.06,0.01c1.04,0.26,2.57,0.41,4.12,0.41L146.58,175.5z"/>
	<path class="st0" d="M190.65,171.51c-0.64,0-1.25-0.25-1.7-0.7c-0.46-0.45-0.71-1.06-0.71-1.7c0-0.64,0.25-1.24,0.71-1.7
		l13.01-13.01V141.8c0.01-1.32,1.08-2.4,2.41-2.4c1.33,0,2.41,1.08,2.41,2.41v13.58c0,0.64-0.25,1.25-0.7,1.7l-13.72,13.71
		C191.9,171.27,191.29,171.51,190.65,171.51L190.65,171.51z"/>
	<path class="st0" d="M204.37,144.27c-2.01-0.01-3.87-0.52-5.37-1.49c-1.76-1.13-2.77-2.83-2.78-4.67c0.01-2.63,1.94-4.16,2.77-4.7
		c1.5-0.98,3.36-1.5,5.37-1.5c2.03,0.01,3.9,0.53,5.39,1.5c1.72,1.12,2.75,2.87,2.75,4.7c-0.01,1.84-1.01,3.54-2.75,4.66
		C208.26,143.74,206.4,144.26,204.37,144.27L204.37,144.27z M204.37,139.45h0.03c1.23,0,2.21-0.37,2.71-0.71
		c0.56-0.38,0.58-0.62,0.58-0.64v-0.01c0-0.01,0.01-0.25-0.59-0.68c-0.5-0.34-1.49-0.7-2.71-0.7h-0.05c-1.21,0-2.19,0.37-2.69,0.71
		c-0.61,0.41-0.61,0.67-0.61,0.67v0.01c0,0.01,0.01,0.04,0.07,0.14c0.04,0.06,0.19,0.26,0.54,0.49c0.51,0.34,1.49,0.71,2.7,0.71
		L204.37,139.45L204.37,139.45z"/>
	<path class="st0" d="M141.36,171.69c-0.64,0-1.25-0.25-1.7-0.7l-13.88-13.89c-0.45-0.45-0.7-1.07-0.7-1.7v-13.58
		c0-1.32,1.08-2.41,2.41-2.41c1.32,0,2.41,1.08,2.41,2.41v12.59l13.18,13.18c0.94,0.94,0.94,2.47,0,3.41
		C142.6,171.44,142,171.69,141.36,171.69L141.36,171.69z"/>
	<path class="st0" d="M127.48,144.26c-2.03,0-3.9-0.52-5.4-1.49c-1.76-1.13-2.77-2.83-2.78-4.67c0.01-2.64,1.95-4.17,2.78-4.71
		c1.5-0.98,3.38-1.49,5.41-1.5c2.02,0.01,3.87,0.53,5.37,1.5c0.83,0.54,2.76,2.07,2.77,4.7c-0.01,1.84-1.02,3.54-2.78,4.67
		C131.34,143.74,129.49,144.26,127.48,144.26L127.48,144.26z M127.48,139.46h0.11c1.7,0,2.99-0.85,3.15-1.2
		c0.06-0.1,0.07-0.13,0.07-0.14v-0.01c0-0.01,0.01-0.25-0.61-0.67c-0.5-0.34-1.48-0.71-2.69-0.71h-0.06c-1.24,0-2.23,0.37-2.74,0.72
		c-0.61,0.41-0.6,0.67-0.6,0.67v0.01c0,0.01,0,0.04,0.07,0.14c0.04,0.06,0.18,0.26,0.53,0.49c0.52,0.35,1.52,0.72,2.75,0.72
		L127.48,139.46L127.48,139.46z"/>
	<path class="st0" d="M179.14,188.34h-26.26c-0.63,0-1.25-0.26-1.7-0.7c-0.44-0.45-0.7-1.07-0.7-1.7v-8.03c0-0.63,0.26-1.25,0.7-1.7
		c0.45-0.45,1.07-0.7,1.7-0.7h26.26c0.63,0,1.25,0.25,1.7,0.7c0.45,0.44,0.71,1.07,0.71,1.7v8.03c0,0.64-0.25,1.25-0.71,1.7
		C180.38,188.09,179.78,188.34,179.14,188.34z M155.28,183.53h21.45v-3.21h-21.45V183.53z"/>
	<path class="st0" d="M144.73,215.94c-1.33,0-2.41-1.08-2.41-2.41v-8.8c0-1.09,0.73-2.05,1.78-2.33l19.52-5.22v-11.26
		c0-1.33,1.08-2.41,2.41-2.41s2.41,1.08,2.41,2.41v13.11c0,1.08-0.73,2.04-1.79,2.32l-19.51,5.22v6.95
		C147.14,214.86,146.05,215.94,144.73,215.94L144.73,215.94z"/>
	<path class="st0" d="M187.29,215.94c-1.33,0-2.41-1.08-2.41-2.41v-6.95l-19.48-5.22c-1.05-0.28-1.79-1.24-1.79-2.32v-13.11
		c0-1.33,1.08-2.41,2.41-2.41s2.41,1.08,2.41,2.41v11.26l19.48,5.22c1.05,0.28,1.79,1.24,1.79,2.33v8.8
		C189.7,214.86,188.62,215.94,187.29,215.94L187.29,215.94z"/>
	<path class="st0" d="M144.73,224.04h-0.01c-1.61,0-3.17-0.66-4.28-1.79c-1.11-1.12-1.74-2.68-1.74-4.28
		c0.01-3.32,2.71-6.02,6.03-6.03c1.61,0.01,3.12,0.64,4.25,1.77c1.14,1.14,1.76,2.65,1.77,4.26c-0.01,1.62-0.63,3.15-1.77,4.29
		C147.85,223.41,146.34,224.04,144.73,224.04L144.73,224.04z M144.73,216.76c-0.68,0-1.21,0.54-1.22,1.22
		c0.01,0.73,0.51,1.25,1.22,1.26c0.66,0,1.21-0.58,1.22-1.26c0-0.32-0.13-0.61-0.37-0.86C145.34,216.88,145.04,216.76,144.73,216.76
		L144.73,216.76z"/>
	<path class="st0" d="M187.29,224.04c-1.61-0.01-3.13-0.64-4.27-1.79c-1.14-1.14-1.76-2.66-1.76-4.28c0.01-1.61,0.64-3.12,1.77-4.26
		c1.13-1.13,2.65-1.76,4.26-1.77c3.32,0,6.02,2.71,6.03,6.03C193.32,221.31,190.61,224.04,187.29,224.04L187.29,224.04z
		 M187.29,216.76c-0.64,0-1.22,0.58-1.22,1.22c0,0.68,0.55,1.26,1.22,1.26c0.69-0.01,1.2-0.54,1.22-1.26
		C188.5,217.3,187.97,216.76,187.29,216.76z"/>
	<path class="st0" d="M165.6,214.21c-1.33,0-2.41-1.08-2.41-2.41v-12.76c0-1.33,1.08-2.41,2.41-2.41c1.32,0,2.4,1.08,2.4,2.41v12.76
		C168,213.14,166.93,214.21,165.6,214.21z"/>
	<path class="st0" d="M165.6,221.46c-3.32-0.01-6.02-2.71-6.03-6.03c0.01-1.61,0.64-3.12,1.77-4.26c1.13-1.13,2.64-1.76,4.25-1.77
		h0.01c1.61,0.01,3.12,0.64,4.25,1.77c1.14,1.14,1.76,2.65,1.77,4.26C171.63,218.75,168.92,221.45,165.6,221.46L165.6,221.46z
		 M165.6,214.22c-0.63,0-1.21,0.58-1.21,1.22c0,0.67,0.53,1.21,1.22,1.22c0.68-0.01,1.21-0.54,1.22-1.22c0-0.32-0.13-0.61-0.37-0.86
		C166.21,214.34,165.91,214.22,165.6,214.22L165.6,214.22z"/>
	<path class="st0" d="M283.03,130.94h-92.16c-0.77,0-1.5-0.37-1.95-1c-0.45-0.63-0.58-1.43-0.33-2.17
		c1.75-5.32,2.11-8.93,2.17-13.71c0.01-1.31,1.09-2.38,2.41-2.38h89.87c0.64,0,1.26,0.26,1.7,0.7c0.44,0.44,0.7,1.07,0.7,1.7v14.45
		c0,0.64-0.25,1.24-0.7,1.7C284.27,130.69,283.67,130.94,283.03,130.94L283.03,130.94z M194.1,126.13h86.53v-9.63h-85.11
		C195.37,119.99,194.94,122.96,194.1,126.13L194.1,126.13z"/>
	<path class="st0" d="M141.45,130.94H48.82c-0.63,0-1.25-0.26-1.7-0.7c-0.45-0.45-0.7-1.07-0.7-1.7v-14.45c0-0.63,0.25-1.25,0.7-1.7
		c0.44-0.44,1.07-0.7,1.7-0.7h90.09c1.31,0,2.36,1.02,2.41,2.33l0.04,1.42c0.15,4.78,1.11,8.04,2.13,11.49
		c0.09,0.31,0.19,0.61,0.28,0.93c0.21,0.72,0.07,1.51-0.38,2.12C142.93,130.58,142.21,130.94,141.45,130.94L141.45,130.94z
		 M51.22,126.13h87.02c-0.71-2.53-1.46-5.65-1.67-9.63H51.23L51.22,126.13z"/>
	<path class="st0" d="M260.43,217.62h-41.27c-0.63,0-1.25-0.25-1.7-0.7c-0.44-0.44-0.7-1.07-0.7-1.7v-86.68
		c0-0.63,0.26-1.26,0.7-1.7c0.45-0.45,1.07-0.7,1.7-0.7h41.27c0.64,0,1.26,0.26,1.7,0.7c0.45,0.44,0.7,1.07,0.7,1.7v86.68
		c0,0.64-0.25,1.25-0.7,1.7C261.68,217.37,261.07,217.62,260.43,217.62z M221.57,212.81h36.46v-81.87h-36.46L221.57,212.81z"/>
	<path class="st0" d="M85.82,217.62H71.37c-0.63,0-1.25-0.25-1.7-0.7c-0.44-0.44-0.7-1.07-0.7-1.7v-86.68c0-0.64,0.26-1.26,0.7-1.7
		c0.45-0.45,1.07-0.7,1.7-0.7h14.45c0.63,0,1.25,0.25,1.7,0.7c0.44,0.44,0.7,1.07,0.7,1.7v86.68c0,0.64-0.25,1.25-0.7,1.7
		C87.06,217.37,86.46,217.62,85.82,217.62z M73.78,212.81h9.63v-81.87h-9.63V212.81z"/>
	<path class="st0" d="M295.66,217.62h-76.63c-1.33,0-2.41-1.08-2.41-2.41c0-1.32,1.08-2.41,2.41-2.41h76.63
		c1.33,0,2.41,1.08,2.41,2.41C298.07,216.54,296.99,217.62,295.66,217.62z"/>
	<path class="st0" d="M126.31,217.62H36.19c-1.33,0-2.41-1.08-2.41-2.41c0-1.32,1.08-2.41,2.41-2.41h90.12
		c1.33,0,2.41,1.08,2.41,2.41C128.72,216.54,127.65,217.62,126.31,217.62L126.31,217.62z"/>
	<path class="st0" d="M260.43,160.05h-32.86c-1.33,0-2.41-1.08-2.41-2.41c0-1.33,1.08-2.41,2.41-2.41h32.86
		c1.33,0,2.41,1.08,2.41,2.41C262.84,158.97,261.76,160.05,260.43,160.05z"/>
	<path class="st0" d="M260.43,188.47h-32.86c-1.33,0-2.41-1.08-2.41-2.41c0-1.32,1.08-2.41,2.41-2.41h32.86
		c1.33,0,2.41,1.08,2.41,2.41C262.84,187.39,261.76,188.47,260.43,188.47z"/>
	<path class="st0" d="M239.81,149.35c-3.25-0.01-5.9-2.63-5.9-5.85c0.01-3.25,2.65-5.9,5.9-5.9c3.23,0,5.85,2.65,5.86,5.9
		c-0.01,1.56-0.61,3.03-1.72,4.14C242.85,148.74,241.38,149.35,239.81,149.35L239.81,149.35z M239.81,142.41
		c-0.62,0.01-1.07,0.47-1.08,1.09c0,0.57,0.49,1.04,1.08,1.04c0.56,0,1.05-0.49,1.05-1.04C240.85,142.89,240.4,142.41,239.81,142.41
		z"/>
	<path class="st0" d="M239.81,177.9c-3.25-0.01-5.9-2.63-5.9-5.85c0-3.23,2.65-5.85,5.9-5.86c1.56,0.01,3.04,0.61,4.14,1.72
		c1.11,1.1,1.71,2.57,1.72,4.14c-0.01,1.56-0.61,3.03-1.72,4.13C242.85,177.29,241.38,177.9,239.81,177.9L239.81,177.9z M239.81,171
		c-0.6,0-1.08,0.47-1.08,1.05c0,0.57,0.49,1.04,1.08,1.04c0.56,0,1.05-0.49,1.05-1.04C240.86,171.49,240.37,171,239.81,171z"/>
	<path class="st0" d="M239.81,206.49c-3.25-0.01-5.9-2.63-5.9-5.85c-0.01-1.57,0.63-3.09,1.74-4.17c1.08-1.07,2.6-1.69,4.15-1.69
		h0.01c1.55,0,3.05,0.62,4.13,1.7c1.1,1.08,1.73,2.6,1.73,4.16c-0.01,1.56-0.61,3.03-1.72,4.14
		C242.85,205.88,241.38,206.49,239.81,206.49L239.81,206.49z M239.81,199.59c-0.65,0.02-1.07,0.43-1.08,1.05
		c0,0.57,0.49,1.04,1.08,1.04c0.56,0,1.05-0.49,1.05-1.04C240.85,200.04,240.42,199.61,239.81,199.59z"/>
	<path class="st0" d="M137.91,100.8H60.59c-1.93-0.01-3.74-0.76-5.1-2.11c-1.37-1.37-2.13-3.18-2.14-5.13V37.93
		c0.01-1.94,0.77-3.76,2.14-5.12c1.36-1.36,3.17-2.11,5.1-2.11l51.79,0c1.33,0,2.41,1.08,2.41,2.41c0,1.32-1.08,2.41-2.41,2.41
		H60.59c-1.31,0-2.42,1.11-2.42,2.42v55.63c0.01,1.31,1.11,2.42,2.42,2.42h77.32c1.31-0.01,2.42-1.11,2.42-2.42V37.93
		c-0.01-1.31-1.11-2.42-2.42-2.42h-1.49c-1.32,0-2.41-1.08-2.41-2.41c0-1.33,1.08-2.41,2.41-2.41h1.49c1.93,0,3.74,0.75,5.1,2.11
		c1.37,1.36,2.13,3.18,2.14,5.12v55.63c-0.01,1.94-0.76,3.76-2.14,5.13C141.65,100.04,139.83,100.79,137.91,100.8L137.91,100.8z
		 M124.4,35.51c-1.33,0-2.41-1.08-2.41-2.41c0-1.33,1.08-2.41,2.41-2.41c1.32,0,2.41,1.08,2.41,2.41
		C126.8,34.43,125.72,35.51,124.4,35.51z"/>
	<path class="st0" d="M135.67,84.63h-73c-0.63,0-1.25-0.26-1.7-0.7c-0.44-0.44-0.7-1.07-0.7-1.7v-43c0-0.63,0.26-1.25,0.7-1.7
		c0.45-0.45,1.07-0.71,1.7-0.71h73c0.63,0,1.26,0.26,1.7,0.71c0.44,0.44,0.7,1.07,0.7,1.7v43c0,0.63-0.26,1.25-0.7,1.7
		C136.93,84.37,136.3,84.63,135.67,84.63z M65.07,79.81h68.19V41.63H65.07V79.81z"/>
	<path class="st0" d="M113.29,116.49H85.22c-0.75,0-1.45-0.34-1.91-0.94c-0.46-0.6-0.61-1.35-0.42-2.08l4.14-15.7
		c0.28-1.05,1.23-1.79,2.33-1.79h19.8c1.09,0,2.05,0.74,2.33,1.79l4.13,15.7c0.19,0.73,0.04,1.49-0.41,2.08
		C114.74,116.15,114.04,116.49,113.29,116.49L113.29,116.49z M88.34,111.68h21.83l-2.87-10.88H91.21L88.34,111.68z"/>
	<path class="st0" d="M222.91,63.36c-5.65,0-10.97-2.21-14.96-6.2c-4-4-6.2-9.31-6.2-14.96c0-5.67,2.2-10.99,6.2-15
		c3.99-4,9.31-6.21,14.96-6.21c5.65,0,10.96,2.21,14.96,6.21c3.99,4.01,6.2,9.33,6.2,15C244.07,53.86,234.58,63.36,222.91,63.36
		L222.91,63.36z M222.91,25.8c-9,0.02-16.34,7.37-16.35,16.4c0.01,9,7.35,16.34,16.35,16.35c9-0.02,16.34-7.35,16.35-16.35
		C239.25,33.17,231.91,25.82,222.91,25.8z"/>
	<path class="st0" d="M222.91,44.61c-0.81,0-1.56-0.4-2-1.08l-4.4-6.64v-0.01c-0.73-1.11-0.43-2.6,0.68-3.33
		c0.4-0.26,0.86-0.4,1.33-0.4c0.81,0,1.56,0.4,2,1.08l3.56,5.37l6.38-0.9c1.3-0.19,2.54,0.75,2.72,2.05
		c0.09,0.63-0.07,1.26-0.46,1.78c-0.38,0.51-0.95,0.85-1.58,0.94l-7.9,1.12C223.13,44.59,223.02,44.61,222.91,44.61L222.91,44.61z"
		/>
	<path class="st0" d="M62.67,84.63c-0.86,0-1.65-0.45-2.08-1.19c-0.67-1.14-0.29-2.62,0.86-3.29l36.49-21.52
		c0.37-0.22,0.8-0.33,1.22-0.33c0.85,0,1.64,0.45,2.08,1.19c0.67,1.14,0.29,2.62-0.86,3.29L63.88,84.29
		C63.51,84.51,63.09,84.63,62.67,84.63L62.67,84.63z"/>
	<path class="st0" d="M99.4,70.91c-0.85,0-1.65-0.46-2.08-1.19c-0.67-1.15-0.29-2.62,0.86-3.3l18.42-10.82
		c0.37-0.22,0.79-0.33,1.22-0.33c0.85,0,1.65,0.46,2.08,1.19c0.32,0.56,0.41,1.2,0.26,1.83c-0.16,0.62-0.56,1.14-1.11,1.47
		l-18.42,10.82C100.25,70.8,99.83,70.91,99.4,70.91L99.4,70.91z"/>
	<path class="st0" d="M261.42,116.49h-44.8c-0.64,0-1.26-0.26-1.7-0.7c-0.45-0.45-0.7-1.07-0.7-1.7v-8.45c0-0.63,0.25-1.25,0.7-1.7
		c0.44-0.44,1.07-0.7,1.7-0.7h44.8c0.63,0,1.25,0.26,1.7,0.7c0.44,0.45,0.7,1.07,0.7,1.7v8.45c0,0.64-0.25,1.25-0.7,1.7
		C262.66,116.24,262.06,116.49,261.42,116.49z M219.02,111.68h39.99v-3.64h-39.99L219.02,111.68z"/>
	<path class="st0" d="M271.07,108.04h-44.76c-0.64,0-1.26-0.26-1.7-0.7c-0.44-0.45-0.7-1.07-0.7-1.7v-8.5c0-0.63,0.26-1.25,0.7-1.7
		c0.45-0.44,1.07-0.7,1.7-0.7h44.76c0.64,0,1.26,0.26,1.7,0.7c0.45,0.45,0.7,1.07,0.7,1.7v8.5c0,0.64-0.25,1.25-0.7,1.7
		C272.32,107.79,271.72,108.04,271.07,108.04z M228.72,103.22h39.94v-3.68h-39.94V103.22z"/>
	<path class="st0" d="M258.4,99.54h-44.76c-0.64,0-1.26-0.26-1.7-0.7c-0.45-0.45-0.7-1.07-0.7-1.7v-8.45c0-0.63,0.25-1.25,0.7-1.7
		c0.44-0.44,1.07-0.7,1.7-0.7h44.76c0.63,0,1.25,0.26,1.7,0.7c0.45,0.45,0.71,1.07,0.71,1.7v8.45c0,0.64-0.25,1.25-0.71,1.7
		C259.65,99.29,259.05,99.54,258.4,99.54z M216.04,94.73H256v-3.64h-39.95L216.04,94.73z"/>
</g>
</svg>
