<?xml version="1.0" encoding="UTF-8"?><svg id="Capa_1" xmlns="http://www.w3.org/2000/svg" viewBox="0 0 393.05 473.65"><defs><style>.cls-1{fill:#2323ca;}</style></defs><g><path class="cls-1" d="M276.55,200.77l14.85,74.24v9.23h-98.49l-42.35-30.25-42.35,30.25H9.71v-9.23l18.55-92.76H234.81c-2.92-2.61-5.18-6.01-6.6-9.71H20.31L.1,273.58l-.1,20.38H19.43v150.56H0v29.14H301.11v-29.14h-19.43v-150.56h19.43v-19.43l-14.64-73.55c-3.34,.82-6.7,.66-9.92-.21Zm-4.58,93.19v150.56h-58.28v-19.43h-9.71v-82.56h9.71v-19.43h9.71v-17.07l-16.9-12.07h65.47Zm-67.99,140.84v9.71h-19.43v-9.71h19.43Zm-19.43-9.71v-82.56h9.71v82.56h-9.71Zm0-92.28v-9.71h19.43v9.71h-19.43Zm-34-66.88l63.14,45.1v2.35H87.42v-2.35l63.14-45.1Zm24.28,57.17v121.42h-48.57v-121.42h48.57Zm-67.99,101.99v-82.56h9.71v82.56h-9.71Zm9.71,9.71v9.71h-19.43v-9.71h19.43Zm-19.43-101.99v-9.71h19.43v9.71h-19.43Zm-67.99-38.85H94.61l-16.9,12.07v17.07h9.71v19.43h9.71v82.56h-9.71v19.43H29.14v-150.56Zm262.26,160.27v9.71H9.71v-9.71H291.4Z"/><path class="cls-1" d="M87.42,352.24H38.85v63.14h48.57v-63.14Zm-9.71,9.71v24.28h-29.14v-24.28h29.14Zm-29.14,43.71v-9.71h29.14v9.71h-29.14Z"/><path class="cls-1" d="M213.69,415.37h48.57v-63.14h-48.57v63.14Zm9.71-9.71v-9.71h29.14v9.71h-29.14Zm29.14-43.71v24.28h-29.14v-24.28h29.14Z"/><path class="cls-1" d="M97.13,255.1v-32.87l7.8,3.34,3.82-8.93-35.91-15.39-35.91,15.39,3.82,8.93,7.8-3.34v32.87h-9.71v9.71H106.85v-9.71h-9.71Zm-38.85-37.04l14.57-6.25,14.57,6.25v37.04h-29.14v-37.04Z"/><path class="cls-1" d="M203.98,222.23v32.87h-9.71v9.71h67.99v-9.71h-9.71v-32.87l7.8,3.34,3.82-8.93-35.91-15.39-35.91,15.39,3.82,8.93,7.8-3.34Zm38.85-4.17v37.04h-29.14v-37.04l14.57-6.25,14.57,6.25Z"/></g><g><path class="cls-1" d="M388.82,104.04c-2.33,0-4.44,1.9-4.44,4.44,0,49.71-40.41,89.91-89.91,89.91s-90.12-40.41-90.12-89.91S241.37,21.96,288.12,18.79l-4.02,2.96c-1.9,1.48-2.33,4.23-.85,6.13,.85,1.06,2.12,1.69,3.38,1.69,.85,0,1.9-.21,2.75-.85l14.6-11c1.06-.85,1.69-2.12,1.69-3.6s-.85-2.75-1.9-3.6l-14.6-9.73c-1.9-1.48-4.65-.85-5.92,1.27-1.27,1.9-.85,4.65,1.27,5.92l2.96,1.9c-51.2,3.81-91.81,46.54-91.81,98.58s44.21,98.58,98.79,98.58,98.58-44.21,98.58-98.58c0-2.54-1.9-4.44-4.23-4.44Z"/><circle class="cls-1" cx="385.44" cy="85.64" r="5.29"/><circle class="cls-1" cx="378.46" cy="65.75" r="5.29"/><circle class="cls-1" cx="365.76" cy="47.14" r="5.29"/><circle class="cls-1" cx="347.99" cy="31.27" r="5.29"/><circle class="cls-1" cx="327.05" cy="20.06" r="5.29"/><path class="cls-1" d="M290.45,148.26c0,2.96,2.54,5.5,5.5,5.5s5.5-2.54,5.5-5.5v-3.17c9.31-2.33,16.29-10.79,16.29-20.94s-6.98-18.62-16.29-20.94v-20.73c4.44,1.69,8.25,5.08,9.73,6.56,2.12,2.12,5.5,2.12,7.83,.21,2.12-2.12,2.33-5.5,.21-7.83-.85-1.06-8.25-8.25-17.56-10.37v-3.38c0-2.96-2.54-5.5-5.5-5.5s-5.5,2.54-5.5,5.5v3.38c-9.1,2.54-15.87,10.79-15.87,20.73s6.77,18.19,15.87,20.73v20.31c-4.23-2.33-8.04-6.13-9.52-7.83-1.9-2.33-5.5-2.54-7.83-.63-2.33,1.9-2.54,5.5-.63,7.83,1.06,1.06,8.46,9.73,17.98,12.48l-.21,3.6h0Zm16.29-24.33c0,3.81-2.12,7.4-5.29,9.1v-18.4c3.17,2.12,5.29,5.5,5.29,9.31Zm-21.16-32.16c0-3.81,1.9-6.98,4.87-8.89v17.77c-2.96-1.69-4.87-5.08-4.87-8.89Z"/></g></svg>