<?xml version="1.0" encoding="UTF-8"?><svg id="Capa_1" xmlns="http://www.w3.org/2000/svg" viewBox="0 0 364.56 375.33"><defs><style>.cls-1{fill:#2323ca;}</style></defs><path class="cls-1" d="M362.55,49.08c-1.38-2.89-3.39-5.4-6.03-7.53-2.26-1.76-4.64-3.14-7.28-4.14-2.64-1-5.15-1.88-7.53-2.51-2.13-.5-3.89-1.13-5.02-1.63-1.13-.5-2.13-1-2.76-1.51-.63-.38-1-.88-1.13-1.26-.13-.38-.25-.63-.25-.88,.25-.38,.88-.88,2.01-1.51,1.13-.63,2.76-1,4.9-1,1.38,0,2.76,.38,4.14,1,1.38,.63,2.26,1.63,2.64,2.89,.25,.5,.63,.75,1.13,.75,.13,0,.25,0,.38-.13l15.19-4.9c.63-.25,.88-.63,.75-1.38-1.13-3.64-3.14-6.78-6.03-9.54-2.89-2.76-6.4-4.64-10.29-5.77V1.26c0-.38-.13-.63-.38-.88-.38-.25-.75-.38-1-.38h-13.18c-.38,0-.63,.13-.75,.38-.25,.25-.25,.5-.25,.88V9.92c-3.26,.88-6.28,2.26-9.04,4.14-2.76,2.01-4.77,4.27-6.28,6.9-1.51,2.64-2.26,5.52-2.26,8.54,0,6.9,2.76,12.43,8.41,16.69,1.76,1.38,3.77,2.51,6.15,3.51,2.38,1,5.15,2.01,8.28,2.89,4.14,1.13,7.03,2.26,8.41,3.51,.38,.38,.63,.75,.75,1.26,.13,.38,.13,.88,.13,1.51,0,1.26-.63,2.51-2.01,3.77-1.26,1.26-3.01,1.88-4.9,1.88s-3.39-.5-4.77-1.38c-1.38-1-2.13-2.13-2.13-3.39,0-.38-.13-.63-.38-.75-.25-.25-.5-.25-.88-.25h-15.94c-.75,0-1.26,.38-1.26,1.13,0,2.51,.38,4.9,1.26,7.28,.88,2.38,2.01,4.39,3.64,6.4,1.51,1.88,3.39,3.64,5.52,5.02,2.13,1.51,4.52,2.51,7.15,3.26v8.66c0,.13,.13,.25,.13,.25h-5.27c-1.38,0-2.26,1.63-1.38,2.76l12.8,18.7c.63,.88,2.13,.88,2.76,0l12.8-18.7c.88-1.13,0-2.76-1.38-2.76h-5.15c0-.13,.13-.13,.13-.25v-8.66c4.9-1.51,9.04-4.27,12.18-8.16,3.51-4.27,5.27-9.16,5.27-14.44,0-4.02-.63-7.28-2.01-10.17Z"/><g><path class="cls-1" d="M287.49,294.18H61.47c-2.26-16.2-15-28.95-31.21-31.21v-27.37c0-2.78-2.26-5.04-5.04-5.04H5.04c-2.78,0-5.04,2.26-5.04,5.04v115.01c0,2.78,2.26,5.04,5.04,5.04h15.13v14.64c0,2.78,2.26,5.04,5.04,5.04h19.68c2.78,0,5.04-2.26,5.04-5.04v-14.64H242.9v14.64c0,2.78,2.26,5.04,5.04,5.04h19.68c2.78,0,5.04-2.26,5.04-5.04v-14.64h14.82c2.78,0,5.04-2.26,5.04-5.04v-51.38c0-2.78-2.26-5.04-5.04-5.04Zm-5.04,29.11c-9.97-.5-15.62-2.51-21.53-4.62-7.35-2.62-14.95-5.34-29.96-5.34s-22.61,2.71-29.96,5.34c-6.85,2.44-13.32,4.75-26.57,4.75s-19.71-2.31-26.55-4.75c-7.34-2.62-14.94-5.34-29.94-5.34s-22.58,2.71-29.92,5.34c-6.83,2.44-13.29,4.75-26.52,4.75s-19.7-2.31-26.54-4.75c-6.47-2.31-13.14-4.69-24.89-5.23v-9.19H282.45v19.03Zm-231.07-29.11H30.26v-21.11c10.66,2.05,19.07,10.45,21.11,21.11ZM10.09,240.64h10.09v53.53H10.09v-53.53Zm29.77,124.6h-9.59v-9.59h9.59v9.59Zm222.73,0h-9.59v-9.59h9.59v9.59Zm5.04-19.68H10.09v-22.01c9.95,.5,15.58,2.51,21.49,4.62,7.35,2.62,14.94,5.34,29.94,5.34s22.58-2.71,29.92-5.34c6.83-2.44,13.29-4.75,26.52-4.75s19.71,2.31,26.55,4.75c7.34,2.62,14.94,5.34,29.94,5.34s22.61-2.71,29.96-5.34c6.85-2.44,13.31-4.75,26.57-4.75s19.72,2.31,26.57,4.75c6.48,2.31,13.16,4.69,24.92,5.23v12.18h-14.83Z"/><path class="cls-1" d="M287.49,82.8H113.29c-2.78,0-5.04,2.26-5.04,5.04v171.6c0,2.78,2.26,5.04,5.04,5.04h174.2c2.78,0,5.04-2.26,5.04-5.04V87.84c0-2.78-2.26-5.04-5.04-5.04Zm-5.04,151.79h-77.02V92.88h77.02V234.59ZM195.34,92.88V234.59H118.33V92.88h77.01ZM118.33,244.68h77.01v9.71H118.33v-9.71Zm87.09,9.71v-9.71h77.02v9.71h-77.02Z"/><path class="cls-1" d="M247.04,133.51c1.29,0,2.58-.49,3.57-1.47l20.59-20.59c1.97-1.97,1.97-5.16,0-7.13-1.97-1.97-5.16-1.97-7.13,0l-20.59,20.59c-1.97,1.97-1.97,5.16,0,7.13,.98,.99,2.27,1.47,3.56,1.47Z"/><path class="cls-1" d="M264.07,124.42l-20.59,20.59c-1.97,1.97-1.97,5.16,0,7.13,.99,.99,2.28,1.47,3.57,1.47s2.58-.49,3.57-1.47l20.59-20.59c1.97-1.97,1.97-5.16,0-7.13-1.97-1.97-5.17-1.97-7.14,0Z"/><path class="cls-1" d="M155.41,153.62c1.29,0,2.58-.49,3.57-1.47l20.58-20.6c1.97-1.97,1.97-5.16,0-7.13-1.97-1.97-5.16-1.97-7.13,0l-20.59,20.59c-1.97,1.97-1.97,5.16,0,7.13,.99,.99,2.28,1.48,3.57,1.48Z"/><path class="cls-1" d="M144.09,166.05c1.29,0,2.58-.49,3.57-1.47l2.18-2.18c1.97-1.97,1.97-5.16,0-7.13-1.97-1.97-5.16-1.97-7.13,0l-2.18,2.18c-1.97,1.97-1.97,5.16,0,7.13,.98,.98,2.27,1.47,3.56,1.47Z"/><path class="cls-1" d="M45.72,163.87h4.72v34.23c0,2.78,2.26,5.04,5.04,5.04s5.04-2.26,5.04-5.04v-34.23h4.88c2.41,0,4.48-1.7,4.94-4.07l10.09-50.95c.29-1.48-.09-3.02-1.05-4.19-.95-1.16-2.38-1.84-3.89-1.84H35.62c-1.5,0-2.95,.68-3.89,1.85-.96,1.17-1.34,2.7-1.05,4.18l10.09,50.95c.47,2.36,2.54,4.07,4.95,4.07Zm23.63-50.95l-8.09,40.86h-11.41l-8.09-40.86h27.59Z"/></g></svg>