<?xml version="1.0" encoding="UTF-8"?><svg id="Capa_1" xmlns="http://www.w3.org/2000/svg" viewBox="0 0 544.15 368.19"><defs><style>.cls-1{fill:#2323ca;}</style></defs><path class="cls-1" d="M340.19,9.28h38.83V228.58h-9.31c.62,2.11,1.23,4.27,1.8,6.51h14.02V2.77h-50.1c1.66,2.22,3.24,4.39,4.76,6.51Z"/><path class="cls-1" d="M214.36,2.77v6.51h94.66c.18-2.29,.91-4.53,2.16-6.51h-96.82Z"/><path class="cls-1" d="M329.48,235.08c-.74-2.21-1.54-4.38-2.38-6.51h-112.73v6.51h115.11Z"/><circle class="cls-1" cx="288.48" cy="70.37" r="29.29" transform="translate(-8.19 57.76) rotate(-11.27)"/><path class="cls-1" d="M351.61,195.49c-.95-1.66-1.89-3.22-2.84-4.74-1.62-2.59-3.22-4.97-4.79-7.15-.39-30.66-1.78-61.23-11.8-89.68,3.34-.08,6.92-.35,10.61-1.25,2.53-.62,5.11-1.53,7.68-2.89,3.41-1.83,6.79-4.7,9.11-8.61,2.34-3.9,3.47-8.58,3.45-13.39-.04-7.81-2.57-16.17-7.56-26.41-5.04-10.23-12.71-22.36-23.88-37.22-3.46-4.6-9.99-5.52-14.58-2.07-4.6,3.46-5.52,9.99-2.06,14.58,10.64,14.14,17.64,25.36,21.83,33.89,4.23,8.52,5.48,14.34,5.43,17.22-.02,1.82-.35,2.42-.51,2.72-.23,.36-.67,.93-2.72,1.62-.13,.04-.28,.08-.43,.12-1.98,.57-4.89,.88-7.94,.87-2.62,0-5.3-.19-7.73-.4-.92-.08-1.76-.16-2.59-.23-.94,14.03-11.15,26.28-25.58,29.16-2.07,.41-4.18,.62-6.27,.62-9.42,0-18.06-4.18-23.96-10.92-3.33,.07-6.58,1.73-8.53,4.74h0c-.36,.56-6.21,9.16-16.47,18.01-6.68,5.77-15.14,11.56-25.12,15.59v22.07c16.87-5.18,30.25-14.39,39.9-22.92,3.34-2.96,6.23-5.84,8.71-8.49,12.99,13.3,20.86,25.9,20.49,50.61l-40.14,23.7c-4.31,2.54-7.2,6.92-7.86,11.88-.66,4.96,1,9.94,4.5,13.52l3.24,3.32h45.53l-10.99-11.24,25.26-14.91c3.47,.02,6.95,.04,10.42,.06,2.62,3.09,5.79,7.33,9.05,12.86,1.11,1.88,2.23,3.89,3.34,6.07,8.17,16.05,16.07,40.44,16.08,76.11,0,4.42-.12,9.02-.38,13.81-.49,8.97,6.39,16.64,15.37,17.13,.3,.02,.6,.02,.9,.02,8.59,0,15.77-6.72,16.24-15.39,.29-5.35,.43-10.54,.43-15.57,.04-44.63-11.12-76.33-22.84-96.83Z"/><path class="cls-1" d="M207.86,234.54V2.23H41.66V234.54H207.86ZM48.17,8.73H201.35V228.03H48.17V8.73Z"/><rect class="cls-1" x="106.69" y="115.8" width="32.11" height="3.47" transform="translate(-47.16 121.22) rotate(-45)"/><rect class="cls-1" x="123.72" y="132.85" width="32.11" height="3.47" transform="translate(-54.23 138.2) rotate(-44.98)"/><rect class="cls-1" x="81.68" y="124.32" width="99.15" height="3.47" transform="translate(-50.69 129.79) rotate(-45.02)"/><rect class="cls-1" y="361.68" width="544.15" height="6.51"/><path class="cls-1" d="M491,156.72h39.23v-18.58h-19.61v-15.98h-19.61v-15.98h-41.83v18.58h19.61v13.38h-19.61v18.59h41.83s0,0,0,0Zm36.62-2.6h-36.62v-13.38h19.61s17.01,0,17.01,0v13.38h0Zm-75.85-31.96v-13.38h36.63v13.38h-36.63Zm19.62,2.6h36.63v13.38h-17.01s-19.62,0-19.62,0v-13.38Zm-19.62,15.98h36.63v13.38h-36.63v-13.38h0Z"/><path class="cls-1" d="M181.17,319.01v-18.59h-19.62v-13.38h19.62v-18.59h-41.83v15.98h-19.61v18.59h19.61v15.98h41.83Zm-2.6-2.6h-36.63v-13.38h19.61s17.01,0,17.01,0v13.38h0Zm-36.63-45.34h36.63v13.38h-36.63v-13.38Zm-19.62,29.36v-13.38h17.01s19.61,0,19.61,0v13.38h-36.62Z"/><path class="cls-1" d="M427.04,247.99h-19.61v18.59h41.83v-15.98h19.62v-18.59h-41.83v15.98Zm19.61,15.98h-36.63v-13.38h36.63v13.38Zm-17.01-29.36h36.63v13.38h-36.62v-13.38h0Z"/></svg>