<svg width="214" height="45" viewBox="0 0 214 45" fill="none" xmlns="http://www.w3.org/2000/svg">
<path d="M55.8105 0.72998C55.8905 2.00998 56.0505 3.28982 56.0505 4.56982C56.0505 16.4765 56.0505 28.3865 56.0505 40.2998V43.7C52.1405 44.35 49.1805 44.23 46.4705 40.47C39.5605 30.91 32.0405 21.79 24.3605 11.95V43.78H17.5205V0.72998H24.1705L48.8105 32.6099C49.3076 29.4755 49.5184 26.3025 49.4405 23.1299C49.5072 15.6565 49.5871 8.18998 49.6805 0.72998H55.8105Z" fill="white"/>
<path d="M213.3 43.98C210.82 43.98 207.71 44.7799 206.02 43.5999C204.33 42.4199 203.71 39.1698 202.71 36.8098C199.23 28.5898 195.79 20.3499 192.32 12.1199C192.05 11.4799 191.73 10.87 191.21 9.78003C186.21 21.41 181.37 32.6299 176.51 43.8999H169.4C175.58 29.3899 181.69 15.06 187.79 0.72998H195C195.27 1.58998 195.48 2.48982 195.83 3.31982C199.07 10.9298 202.31 18.5399 205.61 26.1299C208.12 31.9199 210.73 37.6599 213.3 43.4299V43.98Z" fill="white"/>
<path d="M157.85 0.72998L165.49 5L162.2 10.0598C159.67 8.90981 157.42 7.47991 154.97 6.90991C153.024 6.47335 150.989 6.68048 149.17 7.5C147.598 8.49146 146.412 9.99124 145.81 11.75C145.06 13.83 146.51 15.53 148.33 16.48C151.68 18.23 155.17 19.7 158.51 21.48C163.86 24.28 166.28 29.07 165.33 34.48C163.99 42.07 157.2 45.0999 150.06 44.3999C145.2 43.9299 141.23 41.4798 137.65 37.8198L141.34 33.8198C144.82 35.3298 147.86 36.9999 151.12 37.9399C152.601 38.3631 154.183 38.243 155.583 37.6011C156.982 36.9592 158.106 35.8379 158.75 34.4399C159.75 31.5699 158.58 28.7999 155.15 26.9199C152.65 25.5499 149.99 24.48 147.4 23.26C142.67 21.03 139.11 17.7799 139.24 12.1399C139.37 6.49989 142.55 3.13989 147.52 1.13989C147.67 1.07989 147.75 0.86999 147.87 0.73999L157.85 0.72998Z" fill="white"/>
<path d="M75.7697 0.72998C81.3097 1.86998 86.3897 3.88996 90.0497 8.45996C95.0997 14.77 96.5797 21.83 93.7497 29.46C90.9197 37.09 85.3197 41.98 77.2497 43.46C73.2497 44.16 69.1897 43.99 64.9297 44.22V37.77C67.4797 37.77 70.1197 37.9 72.7397 37.77C79.1797 37.37 84.4797 34.87 86.9297 28.53C89.1997 22.64 88.7697 16.8799 84.4197 11.9199C81.2897 8.33992 77.0397 7.21002 72.4797 7.02002C70.0097 6.92002 67.4797 7.02002 64.6797 7.02002V0.799805L75.7697 0.72998Z" fill="white"/>
<path d="M7.57013 0.72998V43.98H0.910156V0.72998H7.57013Z" fill="white"/>
<path d="M131.78 0.72998V7.1499H99.6201V0.72998H131.78Z" fill="white"/>
<path d="M131.86 37.6201V43.8201H99.8604V37.6201H131.86Z" fill="white"/>
<path d="M126.161 19.1797V25.3096H105.311V19.1797H126.161Z" fill="white"/>
</svg>
