<svg width="233" height="35" viewBox="0 0 233 35" fill="none" xmlns="http://www.w3.org/2000/svg">
<path d="M117.21 22.42C116.3 17.75 117.16 12.85 116.6 6.97998C113.15 11.98 110.19 16.07 107.48 20.3C105.68 23.1 104.39 22.97 102.64 20.3C99.95 16.15 97.06 12.13 94.25 8.06L93.16 8.20001V22.44H91.74V5.21997C93.6 4.34997 95.03 5.03002 96.33 7.02002C99.05 11.18 101.95 15.22 104.75 19.28C110.32 15.15 110.75 6.48998 118.86 4.47998V22.28L117.21 22.42Z" fill="white"/>
<path d="M150.1 23V4.13C152.22 5.13 154.1 5.63999 155.4 6.79999C159.97 10.96 164.33 15.35 168.78 19.66L169.87 19.45V4.91998L171.27 4.96997V22.97C169.49 22.1 167.64 21.64 166.4 20.51C161.82 16.34 157.4 11.95 152.18 6.87C152.311 9.8692 152.288 12.8732 152.11 15.87C151.86 18 153.5 20.86 150.1 23Z" fill="white"/>
<path d="M37.8799 4.09998C39.8799 5.09998 41.7699 5.49997 42.8799 6.65997C47.1999 11.12 51.2799 15.81 55.4499 20.41L57.3699 19.46V4.89001L58.8499 4.94V22.94C57.0999 22.11 55.1499 21.7 53.9999 20.52C49.6399 16.08 45.5399 11.38 41.3499 6.78003L39.7499 7.78003V22.62C37.1999 21.28 36.5899 14 37.8799 4.09998Z" fill="white"/>
<path d="M197 16.3C198.37 20.64 197.7 22.13 194.12 22.41C189.91 22.73 185.66 22.51 181.43 22.5C180.927 22.5275 180.424 22.4278 179.97 22.21C175.04 19.28 177.27 14.4301 176.97 10.3401C176.75 7.52005 178.03 4.99 181.26 4.79C185.483 4.50506 189.72 4.52511 193.94 4.85C195.21 4.95 196.53 6.46002 197.48 7.62002C197.87 8.11002 197.33 9.35002 197.21 10.25C196.688 9.62499 196.123 9.0369 195.52 8.49001C194.63 7.79001 193.68 6.73 192.69 6.66C189.34 6.43 185.96 6.57004 182.59 6.58004C182.217 6.53157 181.838 6.57974 181.49 6.71999C177.26 9.50999 179.65 13.72 179.32 17.36C179.1 19.73 180.97 20.79 183.32 20.8C184.7 20.8 186.07 20.8 187.44 20.8C191.17 20.72 195.62 22.22 197 16.3Z" fill="white"/>
<path d="M145.94 21.77C138.18 16.86 130.68 16.35 123.17 23.02L122.92 21.96C125.98 16.71 128.97 11.41 132.13 6.23C133.44 4.07 135.54 4.23001 137.01 6.68001C140.05 11.67 143 16.74 145.94 21.77ZM134.45 6.69002L128.63 16.69H140.27L134.45 6.69002Z" fill="white"/>
<path d="M85.3 5C85.3 10 85.42 15 85.17 20C85.17 20.8 83.52 22.16 82.58 22.2C77.7398 22.445 72.8903 22.445 68.05 22.2C67.4204 22.0488 66.8395 21.7401 66.362 21.3028C65.8844 20.8655 65.5259 20.3139 65.32 19.7C65.04 14.81 65.19 9.88998 65.19 4.97998L66.35 4.72998C66.796 5.58973 67.1159 6.50918 67.3 7.46002C67.42 10.57 67.49 13.7 67.3 16.81C67.11 19.92 68.5 20.81 71.3 20.81C85.75 20.6 82.89 22.63 83.23 9.48999C83.23 7.93999 83.54 6.39003 83.71 4.84003L85.3 5Z" fill="white"/>
<path d="M209.45 21.76C212.45 16.64 215.45 11.4701 218.52 6.40005C219.94 4.08005 221.94 4.12 223.37 6.47C226.44 11.55 229.37 16.72 232.29 22.39C224.7 16.95 217.29 16.3901 209.84 22.6501L209.45 21.76ZM215.05 16.76H226.73L220.92 6.68002L215.05 16.76Z" fill="white"/>
<path d="M24 11.36V33.73H22.75C20.68 27 22.19 19.96 21.91 13.08C21.93 12.63 23.14 12.09 24 11.36Z" fill="white"/>
<path d="M15.66 33.38L14.49 13.08L17.37 12.02V33.3199L15.66 33.38Z" fill="white"/>
<path d="M10.8199 11.46V34.89L9.81993 34.99C8.13993 28.05 8.32993 20.9 8.38993 13.77C8.35993 13.2 9.50993 12.65 10.8199 11.46Z" fill="white"/>
<path d="M203.41 4.75C206.08 6.75 206.08 20.6 203.41 22.56V4.75Z" fill="white"/>
<path d="M21.78 5.74997H4C6.1 3.92997 11 3.88997 21.78 5.74997Z" fill="white"/>
<path d="M0.22998 0.719971L19.23 1.57001V1.98999H0.22998V0.719971Z" fill="white"/>
<path d="M7.6499 8.15997H23.0499V8.63L7.78992 9.52002L7.6499 8.15997Z" fill="white"/>
</svg>
