<svg width="224" height="48" viewBox="0 0 224 48" fill="none" xmlns="http://www.w3.org/2000/svg">
<path d="M8.31995 5.58002H0.319946V0.799988H21.8899V5.58002H13.8899V25.71H8.41994L8.31995 5.58002Z" fill="white"/>
<path d="M29.7899 0.799988H35.09L45.2 25.71H39.35L37.35 20.48H27.31L25.31 25.71H19.7L29.7899 0.799988ZM29 16.18H35.71L34.71 13.39C33.99 11.39 33.1 8.95 32.44 7.06H32.3699C31.7199 8.95 30.82 11.43 30.03 13.53L29 16.18Z" fill="white"/>
<path d="M47.75 0.799988H55.56C61.23 0.799988 66.29 2.34999 66.29 8.29999C66.3378 9.84753 65.8653 11.3664 64.948 12.6137C64.0306 13.861 62.7215 14.7646 61.23 15.18L68.23 25.71H62L55.7 15.87H53.26V25.71H47.79L47.75 0.799988ZM55.97 11.8C59.07 11.8 60.82 11 60.82 8.70001C60.82 6.40001 59.38 5.59998 55.31 5.59998H53.22V11.8H55.97Z" fill="white"/>
<path d="M70.38 0.799988H78.19C83.87 0.799988 88.93 2.34999 88.93 8.29999C88.9778 9.84753 88.5053 11.3664 87.588 12.6137C86.6706 13.861 85.3615 14.7646 83.87 15.18L90.87 25.71H84.6L78.3 15.87H75.86V25.71H70.38V0.799988ZM78.61 11.8C81.71 11.8 83.46 11 83.46 8.70001C83.46 6.40001 82.02 5.59998 77.96 5.59998H75.86V11.8H78.61Z" fill="white"/>
<path d="M101.69 0.799988H107L117.12 25.71H111.27L109.27 20.48H99.2699L97.2699 25.71H91.6599L101.69 0.799988ZM100.9 16.18H107.61L106.61 13.39C105.89 11.39 104.99 8.95 104.34 7.06H104.27C103.61 8.95 102.72 11.43 101.93 13.53L100.9 16.18Z" fill="white"/>
<path d="M131.14 0.419888C133.805 0.398402 136.432 1.0484 138.78 2.3099V7.81991C136.568 6.27081 133.949 5.4082 131.25 5.33993C126.25 5.33993 122.99 8.87993 122.99 13.3399C122.961 14.4173 123.155 15.4889 123.561 16.4874C123.966 17.4859 124.575 18.3894 125.347 19.1411C126.119 19.8927 127.039 20.4762 128.048 20.8546C129.057 21.2331 130.134 21.3984 131.21 21.3399C132.255 21.3493 133.293 21.1627 134.27 20.7899V16.9999H129.94V12.4499H139.57V23.9999C136.957 25.3576 134.055 26.0643 131.11 26.0599C123.11 26.0599 117.52 20.6599 117.52 13.3299C117.52 5.99992 123.2 0.419888 131.14 0.419888Z" fill="white"/>
<path d="M143 13.2601C142.966 10.6819 143.7 8.15202 145.108 5.99193C146.515 3.83185 148.534 2.13913 150.906 1.12908C153.278 0.119018 155.897 -0.1628 158.43 0.319445C160.963 0.80169 163.295 2.02626 165.13 3.83739C166.966 5.64852 168.221 7.96443 168.736 10.4907C169.252 13.017 169.004 15.6395 168.026 18.0249C167.047 20.4102 165.381 22.4506 163.24 23.8868C161.098 25.3229 158.578 26.0899 156 26.0901C154.295 26.1332 152.6 25.8321 151.014 25.2048C149.428 24.5775 147.986 23.6368 146.772 22.439C145.558 21.2413 144.599 19.811 143.951 18.2339C143.303 16.6567 142.979 14.9651 143 13.2601ZM163.54 13.2601C163.473 11.7847 162.975 10.3613 162.106 9.16667C161.238 7.97205 160.038 7.05881 158.655 6.54021C157.272 6.02161 155.768 5.92049 154.328 6.2495C152.888 6.57851 151.577 7.32315 150.556 8.39092C149.536 9.45868 148.852 10.8026 148.588 12.2558C148.325 13.709 148.494 15.2076 149.075 16.5655C149.656 17.9234 150.623 19.0807 151.856 19.894C153.088 20.7072 154.533 21.1405 156.01 21.1401C157.025 21.1301 158.027 20.9167 158.958 20.5125C159.889 20.1083 160.73 19.5215 161.43 18.7868C162.13 18.0521 162.676 17.1845 163.035 16.2352C163.394 15.2859 163.559 14.2742 163.52 13.2601H163.54Z" fill="white"/>
<path d="M182.54 15.67C180.93 13.5 179.41 11.4 177.86 9.22998H177.79C177.79 11.61 177.86 14.02 177.86 16.43V25.68H172.6V0.799988H177.76L185.23 10.85C186.84 13.01 188.36 15.11 189.91 17.28H189.97C189.97 14.91 189.91 12.51 189.91 10.1V0.799988H195.17V25.71H190L182.54 15.67Z" fill="white"/>
<path d="M207.83 0.799988H213.13L223.24 25.71H217.39L215.39 20.48H205.39L203.39 25.71H197.78L207.83 0.799988ZM207 16.18H213.71L212.71 13.39C211.98 11.39 211.09 8.95 210.43 7.06H210.36C209.71 8.95 208.81 11.43 208.02 13.53L207 16.18Z" fill="white"/>
<path d="M93.1099 45.7399C93.8107 46.2627 94.656 46.5562 95.5299 46.58C96.1344 46.624 96.7317 46.4267 97.1909 46.0312C97.6502 45.6357 97.9339 45.0742 97.9799 44.4699C97.9902 44.3535 97.9902 44.2364 97.9799 44.1199V43.53C97.3641 43.9488 96.6346 44.1687 95.8899 44.1599C95.3778 44.1539 94.8723 44.0444 94.4035 43.8381C93.9348 43.6317 93.5127 43.3328 93.1624 42.9592C92.8121 42.5856 92.541 42.145 92.3653 41.664C92.1896 41.183 92.1129 40.6713 92.1399 40.1599C92.1043 39.6132 92.1814 39.065 92.3664 38.5493C92.5514 38.0335 92.8404 37.5613 93.2155 37.1619C93.5905 36.7624 94.0436 36.4444 94.5467 36.2273C95.0497 36.0102 95.592 35.8988 96.1399 35.9C96.8172 35.8965 97.4856 36.0541 98.0899 36.3599L99.4399 36.1199V44.1199C99.4808 44.6355 99.4091 45.1537 99.2299 45.6388C99.0507 46.1239 98.7683 46.5643 98.4022 46.9295C98.036 47.2947 97.5949 47.576 97.1093 47.7539C96.6238 47.9318 96.1053 48.0021 95.5899 47.96C94.7452 47.9598 93.9138 47.7501 93.1699 47.3499L93.1099 45.7399ZM96.0599 42.84C96.7559 42.8417 97.4322 42.6092 97.9799 42.1799V37.71C97.3973 37.3562 96.7314 37.1629 96.0499 37.15C95.3603 37.2416 94.7274 37.5806 94.269 38.1039C93.8106 38.6272 93.5579 39.2992 93.5579 39.9949C93.5579 40.6906 93.8106 41.3627 94.269 41.886C94.7274 42.4093 95.3603 42.7483 96.0499 42.84H96.0599Z" fill="white"/>
<path d="M101.94 35.9999H103.33V37.1899C103.572 36.8055 103.907 36.4878 104.303 36.266C104.7 36.0442 105.146 35.9252 105.6 35.9199C105.768 35.9195 105.936 35.9397 106.1 35.9799V37.45C105.921 37.3999 105.735 37.3796 105.55 37.39C105.078 37.3893 104.615 37.5236 104.216 37.7769C103.818 38.0302 103.5 38.3921 103.3 38.82V44.09H101.9L101.94 35.9999Z" fill="white"/>
<path d="M107.7 40.9999V35.9999H109.1V40.6899C109.03 41.2757 109.16 41.8678 109.47 42.3699C109.615 42.5528 109.801 42.6989 110.013 42.7962C110.225 42.8935 110.457 42.9393 110.69 42.9299C111.166 42.8896 111.628 42.744 112.041 42.5036C112.454 42.2632 112.809 41.9341 113.08 41.5399V35.9999H114.49V44.1199H113.08V43.1199C112.745 43.4941 112.338 43.7955 111.882 44.0054C111.426 44.2152 110.932 44.3292 110.43 44.34C110.038 44.3505 109.648 44.2743 109.288 44.117C108.929 43.9597 108.608 43.7251 108.35 43.4299C107.856 42.7207 107.626 41.861 107.7 40.9999Z" fill="white"/>
<path d="M118.42 47.7499H117V35.9999H118.4V36.53C119.029 36.0575 119.793 35.8014 120.58 35.7999C122.63 35.7999 124.29 37.4999 124.29 40.0099C124.327 40.5575 124.251 41.1068 124.067 41.6237C123.882 42.1406 123.593 42.6141 123.218 43.0146C122.843 43.4151 122.389 43.7341 121.886 43.9518C121.382 44.1695 120.839 44.2812 120.29 44.28C119.636 44.282 118.992 44.1277 118.41 43.83L118.42 47.7499ZM120.42 42.9999C120.78 42.9976 121.137 42.9199 121.466 42.772C121.794 42.624 122.089 42.409 122.33 42.1407C122.571 41.8725 122.753 41.5568 122.865 41.214C122.977 40.8712 123.016 40.5088 122.98 40.15C123.023 39.7847 122.99 39.4144 122.884 39.0622C122.779 38.71 122.602 38.3832 122.365 38.102C122.127 37.8208 121.835 37.5913 121.506 37.4276C121.177 37.2638 120.817 37.1693 120.45 37.15C119.717 37.1515 119.008 37.4138 118.45 37.89V42.4199C119.03 42.7732 119.691 42.9728 120.37 42.9999H120.42Z" fill="white"/>
<path d="M129.89 35.83C130.701 35.8208 131.495 36.055 132.171 36.5024C132.847 36.9498 133.373 37.5898 133.682 38.3395C133.99 39.0892 134.066 39.9142 133.9 40.7077C133.735 41.5012 133.335 42.2267 132.752 42.7904C132.169 43.354 131.431 43.7299 130.633 43.8693C129.834 44.0088 129.012 43.9053 128.273 43.5725C127.534 43.2396 126.912 42.6925 126.487 42.0022C126.062 41.3118 125.854 40.5098 125.89 39.7C125.938 38.6667 126.379 37.6909 127.123 36.9717C127.866 36.2525 128.856 35.8441 129.89 35.83ZM129.89 42.96C130.472 43.0103 131.056 42.8837 131.565 42.5968C132.073 42.3098 132.484 41.8758 132.742 41.3517C133 40.8276 133.094 40.2378 133.011 39.6595C132.928 39.0812 132.672 38.5414 132.277 38.1108C131.883 37.6802 131.367 37.379 130.798 37.2464C130.229 37.1139 129.633 37.1562 129.089 37.3679C128.544 37.5797 128.077 37.951 127.747 38.4331C127.417 38.9153 127.24 39.4858 127.24 40.07C127.217 40.4354 127.268 40.8016 127.39 41.1469C127.512 41.4921 127.702 41.8091 127.95 42.079C128.197 42.3489 128.497 42.566 128.83 42.7174C129.163 42.8687 129.524 42.9513 129.89 42.96Z" fill="white"/>
<path d="M136.88 31.9999C137.076 31.9772 137.275 31.9951 137.464 32.0525C137.653 32.11 137.828 32.2057 137.979 32.3338C138.129 32.4618 138.252 32.6195 138.339 32.7969C138.426 32.9744 138.475 33.1678 138.484 33.3652C138.493 33.5626 138.461 33.7597 138.391 33.9443C138.32 34.1288 138.212 34.2969 138.074 34.4381C137.936 34.5792 137.77 34.6904 137.587 34.7647C137.404 34.839 137.207 34.8748 137.01 34.8699C136.63 34.8836 136.26 34.7477 135.98 34.4915C135.699 34.2353 135.531 33.8792 135.51 33.4999V33.4299C135.505 33.0593 135.645 32.7016 135.902 32.4339C136.158 32.1663 136.509 32.0104 136.88 31.9999ZM135.69 35.9999H138.06V44.1199H135.7L135.69 35.9999Z" fill="#B2B2B2"/>
<path d="M140.1 36H142.44V36.75C143.091 36.1611 143.932 35.8273 144.81 35.8099C145.183 35.8028 145.553 35.8729 145.897 36.0157C146.241 36.1585 146.552 36.3711 146.81 36.64C147.325 37.3282 147.56 38.1853 147.47 39.0399V44.0999H145.11V39.45C145.157 39.0532 145.061 38.6525 144.84 38.32C144.741 38.2035 144.616 38.1115 144.476 38.0508C144.335 37.9901 144.183 37.9624 144.03 37.9699C143.438 38.0119 142.875 38.2474 142.43 38.64V44.0999H140.1V36Z" fill="#B2B2B2"/>
<path d="M159.43 39.44C159.48 39.051 159.38 38.6576 159.15 38.34C159.051 38.2236 158.926 38.1314 158.786 38.0708C158.645 38.0101 158.493 37.9824 158.34 37.9899C157.771 38.0277 157.235 38.2691 156.83 38.6699C156.83 38.7899 156.83 38.91 156.83 39.03V44.1199H154.46V39.44C154.5 39.0517 154.4 38.662 154.18 38.34C154.081 38.2236 153.956 38.1314 153.816 38.0708C153.675 38.0101 153.523 37.9824 153.37 37.9899C152.808 38.0288 152.278 38.2622 151.87 38.65V44.1199H149.5V36H151.84V36.7299C152.466 36.1415 153.291 35.8096 154.15 35.7999C154.589 35.7809 155.026 35.8782 155.416 36.0819C155.805 36.2855 156.135 36.5884 156.37 36.96C157.083 36.2343 158.053 35.8176 159.07 35.7999C159.442 35.7846 159.813 35.8489 160.158 35.9886C160.502 36.1283 160.814 36.3401 161.07 36.6099C161.604 37.2856 161.855 38.1426 161.77 39V44.09H159.4L159.43 39.44Z" fill="#B2B2B2"/>
<path d="M167.59 35.83C168.427 35.8359 169.244 36.0895 169.937 36.559C170.631 37.0285 171.169 37.6928 171.486 38.468C171.802 39.2433 171.882 40.0949 171.715 40.9153C171.548 41.7358 171.142 42.4885 170.547 43.0785C169.953 43.6685 169.198 44.0693 168.376 44.2305C167.554 44.3917 166.704 44.306 165.93 43.9843C165.157 43.6625 164.497 43.119 164.032 42.4224C163.568 41.7258 163.32 40.9073 163.32 40.0699C163.311 39.5223 163.409 38.9782 163.61 38.4688C163.811 37.9593 164.111 37.4944 164.492 37.1006C164.872 36.7069 165.327 36.392 165.829 36.174C166.332 35.956 166.872 35.8391 167.42 35.83H167.59ZM167.59 42.15C168.002 42.1881 168.416 42.1029 168.78 41.9053C169.144 41.7077 169.441 41.4065 169.633 41.0399C169.825 40.6734 169.904 40.258 169.86 39.8464C169.816 39.4348 169.651 39.0456 169.386 38.728C169.12 38.4105 168.766 38.179 168.369 38.0628C167.971 37.9466 167.549 37.951 167.154 38.0755C166.759 38.2 166.41 38.4389 166.151 38.7619C165.892 39.0849 165.735 39.4775 165.7 39.89C165.695 39.9499 165.695 40.01 165.7 40.0699C165.678 40.5906 165.86 41.0994 166.207 41.4879C166.555 41.8764 167.04 42.114 167.56 42.15H167.59Z" fill="#B2B2B2"/>
<path d="M173.41 31.53H175.78V36.3699C176.339 35.9979 176.998 35.8028 177.67 35.8099C179.57 35.8099 181.27 37.38 181.27 39.9C181.307 40.465 181.227 41.0316 181.036 41.5644C180.844 42.0972 180.545 42.5848 180.156 42.9967C179.768 43.4086 179.298 43.7361 178.778 43.9586C178.257 44.1811 177.696 44.2939 177.13 44.2899C176.479 44.2802 175.836 44.1408 175.24 43.8799L173.38 44.2L173.41 31.53ZM177 42.28C177.279 42.2736 177.554 42.2089 177.806 42.09C178.059 41.9712 178.283 41.8008 178.466 41.5898C178.649 41.3788 178.785 41.1319 178.867 40.865C178.949 40.5981 178.973 40.317 178.94 40.0399C178.972 39.7778 178.949 39.5118 178.872 39.2592C178.794 39.0067 178.665 38.7732 178.491 38.5742C178.317 38.3751 178.104 38.2148 177.864 38.1038C177.624 37.9928 177.364 37.9336 177.1 37.9299C176.635 37.9314 176.18 38.0668 175.79 38.3199V41.9999C176.163 42.1952 176.579 42.2917 177 42.28Z" fill="#B2B2B2"/>
<path d="M184.09 31.9999C184.279 31.9892 184.468 32.0159 184.646 32.0786C184.824 32.1412 184.988 32.2386 185.129 32.3651C185.269 32.4915 185.383 32.6446 185.464 32.8153C185.545 32.9861 185.591 33.1712 185.6 33.3599C185.623 33.5559 185.605 33.7545 185.548 33.9434C185.491 34.1323 185.396 34.3074 185.268 34.458C185.141 34.6085 184.984 34.7313 184.807 34.8186C184.63 34.9059 184.437 34.9559 184.24 34.9655C184.043 34.9751 183.846 34.9441 183.661 34.8744C183.477 34.8047 183.308 34.6979 183.167 34.5605C183.025 34.4231 182.913 34.258 182.838 34.0756C182.763 33.8931 182.726 33.6972 182.73 33.4999V33.4299C182.722 33.0603 182.86 32.7025 183.115 32.4346C183.37 32.1667 183.72 32.0104 184.09 31.9999ZM182.91 35.9999H185.28V44.1199H182.91V35.9999Z" fill="#B2B2B2"/>
<path d="M187.32 31.53H189.69V44.1199H187.32V31.53Z" fill="#B2B2B2"/>
<path d="M192.91 31.9999C193.106 31.9772 193.305 31.9951 193.494 32.0525C193.683 32.11 193.858 32.2057 194.009 32.3338C194.159 32.4618 194.282 32.6195 194.369 32.7969C194.456 32.9744 194.505 33.1678 194.514 33.3652C194.523 33.5626 194.491 33.7597 194.421 33.9443C194.35 34.1288 194.242 34.2969 194.104 34.4381C193.966 34.5792 193.8 34.6904 193.617 34.7647C193.434 34.839 193.237 34.8748 193.04 34.8699C192.66 34.8836 192.29 34.7477 192.01 34.4915C191.729 34.2353 191.561 33.8792 191.54 33.4999V33.4299C191.535 33.0593 191.675 32.7016 191.932 32.4339C192.188 32.1663 192.539 32.0104 192.91 31.9999ZM191.73 35.9999H194.09V44.1199H191.73V35.9999Z" fill="#B2B2B2"/>
<path d="M196.54 43.78C196.244 43.5622 196.006 43.2749 195.848 42.9436C195.689 42.6123 195.614 42.247 195.63 41.8799C195.612 41.4953 195.689 41.1121 195.853 40.7637C196.016 40.4152 196.263 40.1119 196.57 39.8799C197.21 39.471 197.961 39.2685 198.72 39.2999C199.164 39.2998 199.607 39.3501 200.04 39.4499V39.1399C200.057 38.825 199.949 38.5161 199.74 38.28C199.404 38.0209 198.983 37.8961 198.56 37.9299C197.769 37.9483 196.997 38.1723 196.32 38.5799V36.4199C197.15 35.9982 198.069 35.7822 199 35.7899C199.916 35.7378 200.82 36.0145 201.55 36.5699C201.853 36.8545 202.087 37.2037 202.236 37.5916C202.385 37.9795 202.444 38.3959 202.41 38.8099V41.5599C202.41 41.9399 202.55 42.1999 202.87 42.1999C203.005 42.201 203.139 42.1702 203.26 42.1099V43.9999C202.91 44.1766 202.522 44.2625 202.13 44.2499C201.825 44.2664 201.52 44.2179 201.236 44.1076C200.951 43.9972 200.694 43.8276 200.48 43.6099C199.856 44.0558 199.107 44.2937 198.34 44.2899C197.701 44.3161 197.07 44.1375 196.54 43.78ZM200.04 42.1299V40.9399C199.767 40.8629 199.484 40.8259 199.2 40.8299C198.59 40.8299 197.99 41.0299 197.99 41.6499C197.99 42.2699 198.42 42.4599 198.99 42.4599C199.371 42.4541 199.742 42.3396 200.06 42.1299H200.04Z" fill="#B2B2B2"/>
<path d="M204.57 35.9999H206.9V37.0899C207.135 36.7126 207.464 36.4026 207.855 36.1905C208.246 35.9784 208.685 35.8714 209.13 35.8799C209.299 35.8779 209.468 35.9015 209.63 35.9499V38.3099C209.142 38.1821 208.628 38.1961 208.148 38.3502C207.668 38.5043 207.242 38.7921 206.92 39.1799V44.0899H204.55L204.57 35.9999Z" fill="#B2B2B2"/>
<path d="M212.08 31.9999C212.365 31.9863 212.647 32.0576 212.891 32.2046C213.136 32.3517 213.331 32.5679 213.452 32.826C213.573 33.084 213.615 33.3723 213.572 33.6542C213.53 33.936 213.404 34.1989 213.212 34.4094C213.02 34.6199 212.769 34.7686 212.492 34.8367C212.215 34.9047 211.925 34.8891 211.657 34.7917C211.389 34.6943 211.156 34.5195 210.987 34.2895C210.819 34.0596 210.722 33.7848 210.71 33.4999V33.4299C210.704 33.0593 210.845 32.7016 211.102 32.434C211.358 32.1663 211.709 32.0104 212.08 31.9999ZM210.9 35.9999H213.26V44.1199H210.9V35.9999Z" fill="#B2B2B2"/>
<path d="M219.09 35.83C219.927 35.8359 220.744 36.0895 221.437 36.559C222.131 37.0285 222.669 37.6928 222.986 38.468C223.302 39.2433 223.382 40.0949 223.215 40.9153C223.048 41.7358 222.642 42.4885 222.047 43.0785C221.453 43.6685 220.698 44.0693 219.876 44.2305C219.055 44.3917 218.204 44.306 217.431 43.9843C216.657 43.6625 215.997 43.119 215.532 42.4224C215.068 41.7258 214.82 40.9073 214.82 40.0699C214.801 38.9657 215.221 37.899 215.988 37.1041C216.755 36.3092 217.806 35.851 218.91 35.83H219.09ZM219.09 42.15C219.502 42.1861 219.915 42.0991 220.278 41.9001C220.64 41.7012 220.936 41.3991 221.127 41.0322C221.317 40.6653 221.395 40.2501 221.35 39.839C221.304 39.4279 221.138 39.0395 220.872 38.723C220.606 38.4064 220.252 38.176 219.855 38.0607C219.458 37.9455 219.035 37.9506 218.641 38.0756C218.247 38.2005 217.898 38.4396 217.64 38.7626C217.382 39.0855 217.225 39.4779 217.19 39.89V40.0699C217.168 40.5906 217.35 41.0994 217.697 41.4879C218.045 41.8764 218.53 42.114 219.05 42.15H219.09Z" fill="#B2B2B2"/>
</svg>
