<svg width="53" height="46" viewBox="0 0 53 46" fill="none" xmlns="http://www.w3.org/2000/svg">
<path d="M52.06 45.4099L47.49 36.9999L45.75 39.9999L39.27 36.2399V22.9999L27.73 16.3099V8.79993H31.16L26.16 0.689941L21.16 8.84991H24.59V16.3599L13.15 22.9999V36.34L6.67001 40.0399L4.92999 37.0399L0.359985 45.4199L9.88 45.64L8.14001 42.64L14.67 38.9399L26.21 45.58L37.75 38.9399L44.22 42.6899L42.54 45.6299L52.06 45.4099ZM16.19 26.4699L24.68 31.3699V41.1699L16.19 36.27V26.4699ZM26.19 28.7599L17.7 23.8599L26.19 18.96L34.68 23.8599L26.19 28.7599ZM27.71 41.1699V31.3699L36.2 26.4699V36.27L27.71 41.1699Z" fill="#2323D7"/>
</svg>
