<svg width="270" height="163" viewBox="0 0 270 163" fill="none" xmlns="http://www.w3.org/2000/svg">
<path fill-rule="evenodd" clip-rule="evenodd" d="M16.04 109.61C18.81 110.21 21.3 111.58 23.25 113.49C23.85 113.38 24.47 113.33 25.1 113.33C29.11 113.33 32.6 115.56 34.4 118.85C39.8 119.34 44.03 123.88 44.03 129.4C44.03 129.69 44.02 129.97 44 130.25H89.95C89.68 129.2 89.54 128.09 89.54 126.96C89.54 121.5 92.87 116.81 97.61 114.82V68.19H16.05L16.04 109.61ZM79.68 78.34H79.35C76.23 78.34 73.24 79.58 71.04 81.78C68.84 83.98 67.6 86.97 67.6 90.09V107.59C67.6 110.54 69.99 112.93 72.94 112.93H86.1C89.05 112.93 91.44 110.54 91.44 107.59V90.09C91.44 86.97 90.2 83.98 88 81.78C85.79 79.57 82.8 78.34 79.68 78.34ZM77.27 108.41H72.95C72.49 108.41 72.12 108.04 72.12 107.58V99.61H77.27V108.41ZM86.93 99.61V107.58C86.93 108.04 86.56 108.41 86.1 108.41H81.78V99.61H86.93ZM77.27 83.16V95.1H72.12V90.09C72.12 88.17 72.88 86.33 74.24 84.97C75.09 84.12 76.13 83.5 77.27 83.16ZM81.78 83.16C82.91 83.5 83.95 84.12 84.81 84.97C86.17 86.33 86.93 88.17 86.93 90.09V95.1H81.78V83.16Z" fill="white"/>
<path fill-rule="evenodd" clip-rule="evenodd" d="M228.83 126.94C223.69 125.56 219.82 119.57 219.82 112.39C219.82 109.17 220.6 106.18 221.93 103.75C223.06 101.68 223.51 99.11 223.19 96.6C223.12 96.05 223.08 95.48 223.08 94.9C223.08 89.08 226.67 84.35 231.08 84.35C235.5 84.35 239.09 89.08 239.09 94.9C239.09 95.48 239.05 96.05 238.99 96.6C238.67 99.11 239.13 101.68 240.25 103.75C241.57 106.19 242.35 109.17 242.35 112.39C242.35 119.57 238.48 125.56 233.34 126.94V103.83C233.34 102.59 232.33 101.57 231.08 101.57C229.84 101.57 228.82 102.58 228.82 103.83L228.83 126.94Z" fill="white"/>
<path fill-rule="evenodd" clip-rule="evenodd" d="M4.76004 130.24C3.45004 128.52 2.67004 126.37 2.67004 124.04C2.67004 118.38 7.27004 113.78 12.93 113.78C16.69 113.78 19.98 115.81 21.77 118.83C22.73 118.2 23.88 117.83 25.11 117.83C28.41 117.83 31.1 120.46 31.19 123.73C31.89 123.45 32.65 123.3 33.44 123.3C36.8 123.3 39.52 126.03 39.52 129.38C39.52 129.67 39.5 129.95 39.46 130.23L4.76004 130.24Z" fill="white"/>
<path fill-rule="evenodd" clip-rule="evenodd" d="M42.67 139.27H243.03C244.27 139.27 245.29 138.26 245.29 137.01C245.29 135.76 244.28 134.75 243.03 134.75H2.67003C1.43003 134.75 0.410034 135.76 0.410034 137.01C0.410034 138.26 1.42003 139.27 2.67003 139.27H42.67Z" fill="white"/>
<path d="M172.66 24.73H160.55V38.58H176.42L172.66 24.73Z" fill="white"/>
<path d="M215.67 38.58L205.31 25.79C204.77 25.12 203.95 24.73 203.08 24.73H193.09L200.58 38.58H215.67Z" fill="white"/>
<path d="M196.09 38.58L188.6 24.73H176.75L180.5 38.58H196.09Z" fill="white"/>
<path d="M168.78 55.04C173.3 55.04 177 51.35 177 46.82V42.53H160.54V46.82C160.54 51.35 164.24 55.04 168.78 55.04Z" fill="white"/>
<path d="M180.95 46.82C180.95 51.34 184.64 55.04 189.19 55.04C193.74 55.04 197.43 51.35 197.43 46.82V42.53H180.95V46.82Z" fill="white"/>
<path d="M201.38 46.82C201.38 51.34 205.07 55.04 209.6 55.04C211.77 55.04 213.81 54.21 215.35 52.71C215.41 52.65 215.45 52.61 215.51 52.57C217.01 51.01 217.84 48.97 217.84 46.82V42.53H201.38V46.82Z" fill="white"/>
<path d="M124.05 24.73H114.06C113.19 24.73 112.38 25.12 111.83 25.79L101.47 38.58H116.56L124.05 24.73Z" fill="white"/>
<path d="M136.64 38.58L140.39 24.73H128.53L121.04 38.58H136.64Z" fill="white"/>
<path d="M107.54 55.04C112.07 55.04 115.76 51.36 115.76 46.82V42.53H99.3V46.82C99.3 51.3 102.95 55.04 107.54 55.04Z" fill="white"/>
<path d="M156.59 24.73H144.48L140.73 38.58H156.6V24.73H156.59Z" fill="white"/>
<path d="M156.59 46.82V42.53H140.13V46.82C140.13 51.34 143.82 55.04 148.35 55.04C152.9 55.04 156.59 51.35 156.59 46.82Z" fill="white"/>
<path d="M136.19 46.82V42.53H119.71V46.82C119.71 51.34 123.4 55.04 127.95 55.04C132.49 55.04 136.19 51.35 136.19 46.82Z" fill="white"/>
<path d="M209.6 58.99C205.33 58.99 201.58 56.78 199.41 53.44C197.24 56.78 193.46 58.99 189.2 58.99C184.93 58.99 181.16 56.78 178.99 53.44C176.82 56.78 173.06 58.99 168.8 58.99C164.51 58.99 160.76 56.78 158.59 53.44C156.42 56.78 152.66 58.99 148.38 58.99C144.11 58.99 140.36 56.78 138.19 53.44C136.02 56.78 132.24 58.99 127.98 58.99C123.71 58.99 119.96 56.78 117.77 53.44C115.5 56.99 111.53 58.99 107.58 58.99C105.62 58.99 103.59 58.43 102.42 57.84V128.61C102.42 129.54 103.17 130.29 104.1 130.29H141.82V94.83C141.82 91.56 144.47 88.9 147.75 88.9H156.64V130.2H160.59V88.9H169.48C172.74 88.9 175.41 91.55 175.41 94.83V130.29H213.13C214.06 130.29 214.81 129.54 214.81 128.61V57.84C213.48 58.48 211.49 58.99 209.6 58.99ZM129.35 103.19H113.54V87.38H129.35V103.19ZM129.35 83.43H113.54V67.62H129.35V83.43ZM166.47 75.47H150.66V67.63H166.47V75.47ZM203.18 103.19H187.37V87.38H203.18V103.19ZM203.18 83.43H187.37V67.62H203.18V83.43Z" fill="white"/>
<path fill-rule="evenodd" clip-rule="evenodd" d="M89.25 130.24H95.86C96.82 130.24 97.6 129.46 97.6 128.5V108.9L89.24 114.76V130.24H89.25Z" fill="white"/>
<path fill-rule="evenodd" clip-rule="evenodd" d="M95.47 46.93C95.47 44.39 96.26 42.03 97.6 40.09L103.29 31.32H40.14C39.31 31.32 38.52 31.66 37.94 32.25C34.24 36.04 20.08 50.53 12.35 58.44C11.48 59.33 11.23 60.65 11.71 61.79C12.19 62.93 13.31 63.68 14.55 63.68H97.59V53.78C96.26 51.83 95.47 49.47 95.47 46.93Z" fill="white"/>
</svg>
