<svg width="244" height="152" viewBox="0 0 244 152" fill="none" xmlns="http://www.w3.org/2000/svg">
<g clip-path="url(#clip0_1_23)">
<path d="M99.57 57.75L103.34 47.17L94.37 22.02C92.74 29.59 93.12 37.46 95.47 44.84L99.57 57.75Z" fill="white"/>
<path d="M110.15 90.84C109.43 92.27 109.11 93.85 109.22 95.45C109.41 97.85 110.57 100.06 112.42 101.59C114.35 103.24 116.86 104.05 119.38 103.83C121.9 103.62 124.24 102.4 125.84 100.43C127.36 98.59 128.06 96.22 127.8 93.85C127.5 91.61 126.4 89.55 124.69 88.06C122.98 86.57 120.79 85.77 118.53 85.78H118.24C117.57 85.83 116.96 85.41 116.76 84.77L110.54 67.34L109.78 69.74C109.66 70.13 109.38 70.46 109.02 70.64C108.4 70.96 107.81 71.32 107.25 71.73C108.44 73.07 109.4 74.61 110.08 76.27L113.86 85.49C114.14 86.16 113.9 86.94 113.29 87.34C111.95 88.2 110.87 89.41 110.15 90.84ZM113.66 91.08C114.7 89.79 116.2 88.97 117.85 88.81C119.46 88.63 121.08 89.09 122.35 90.09C123.62 91.09 124.45 92.56 124.65 94.16C124.83 95.74 124.37 97.33 123.36 98.57C122.34 99.84 120.86 100.65 119.24 100.84C117.62 101.03 115.99 100.57 114.71 99.57C113.42 98.57 112.58 97.1 112.37 95.49C112.2 93.9 112.66 92.31 113.66 91.08Z" fill="white"/>
<path d="M118.17 91.84C117.33 91.92 116.56 92.34 116.04 92.99C115.55 93.59 115.32 94.37 115.41 95.15C115.51 95.96 115.94 96.7 116.58 97.19C117.23 97.69 118.04 97.91 118.86 97.81C119.7 97.73 120.47 97.31 121 96.66C121.49 96.06 121.72 95.28 121.63 94.5C121.52 93.69 121.1 92.96 120.45 92.46C119.8 91.96 118.98 91.74 118.17 91.84Z" fill="white"/>
<path d="M96.48 87.79C95.87 87.39 95.6299 86.61 95.9099 85.94L99.69 76.72C100.37 75.06 101.7 72.4 102.89 71.05C102.33 70.64 101.36 71.41 100.75 71.09C100.38 70.9 100.11 70.58 99.99 70.19L99.23 67.79L93 85.22C92.8 85.86 92.19 86.28 91.52 86.23H91.23C88.97 86.21 86.78 87.02 85.07 88.51C83.36 90 82.26 92.05 81.96 94.3C81.69 96.67 82.4 99.04 83.92 100.88C85.52 102.84 87.85 104.07 90.38 104.28C92.91 104.5 95.42 103.69 97.34 102.04C99.2 100.51 100.35 98.3 100.54 95.9C100.64 94.31 100.32 92.72 99.61 91.29C98.89 89.87 97.81 88.66 96.48 87.79ZM97.38 95.94C97.16 97.56 96.3199 99.02 95.0399 100.02C93.7499 101.02 92.13 101.48 90.51 101.29C88.89 101.1 87.41 100.29 86.39 99.02C85.39 97.78 84.9199 96.2 85.0999 94.61C85.2999 93 86.13 91.54 87.4 90.54C88.67 89.54 90.29 89.08 91.9 89.26C93.54 89.43 95.05 90.25 96.09 91.53C97.1 92.77 97.56 94.36 97.38 95.94Z" fill="white"/>
<path d="M91.59 92.29C90.78 92.19 89.96 92.41 89.32 92.91C88.67 93.41 88.25 94.14 88.14 94.95C88.05 95.72 88.28 96.5 88.77 97.11C89.3 97.77 90.07 98.18 90.91 98.26C91.72 98.36 92.54 98.14 93.19 97.64C93.84 97.14 94.26 96.41 94.36 95.6C94.45 94.83 94.22 94.05 93.73 93.44C93.19 92.79 92.42 92.37 91.59 92.29Z" fill="white"/>
<path d="M94.44 81.24L97.61 81.77L99.87 76.27C100.05 75.84 100.24 75.43 100.46 75.03C100.47 75.01 100.47 74.99 100.49 74.98C100.5 74.95 100.52 74.91 100.54 74.88C101.4 73.23 102.55 71.74 103.94 70.5C104.89 69.63 105.94 68.87 107.06 68.25L108.95 62.26C108.96 62.2 108.97 62.15 108.99 62.1L114.45 44.85C116.8 37.47 117.18 29.61 115.55 22.03L94.44 81.24ZM103.44 61.15H106.49V64.2H103.44V61.15Z" fill="white"/>
<path d="M79.39 101.44C79.3 101.56 79.22 101.7 79.16 101.84L76.58 108.3V132.45H84.53V119.85C84.53 119.32 84.74 118.82 85.11 118.45C85.48 118.08 85.99 117.87 86.51 117.87H89.65C91.21 117.87 92.75 117.5 94.15 116.79L97.33 115.2C98.01 114.86 98.44 114.17 98.44 113.41V107.81C98.44 107.67 98.37 107.54 98.24 107.47C98.13 107.39 97.98 107.38 97.85 107.43L95.88 108.42C93.95 109.4 91.81 109.91 89.65 109.9H82.54C81.85 109.9 81.21 109.54 80.85 108.96C80.49 108.37 80.46 107.64 80.77 107.02L82.59 103.4C82.95 102.67 82.81 101.79 82.23 101.22C81.99 100.98 81.69 100.81 81.35 100.73C80.61 100.54 79.83 100.83 79.39 101.44Z" fill="white"/>
<path d="M68.17 109.04C68.22 109.56 68.25 110.09 68.25 110.63C68.24 111.34 68.19 112.04 68.09 112.75L72.6 129V108.13L68.17 109.04Z" fill="white"/>
<path d="M38.84 74.85V80.81C38.84 81.86 38.42 82.87 37.68 83.62C36.94 84.37 35.92 84.78 34.87 84.78H34.53C35.92 87.21 38.12 89.06 40.74 90.02C43.36 90.98 46.24 90.98 48.87 90.02C51.49 89.06 53.69 87.21 55.08 84.78H54.74C53.69 84.78 52.68 84.36 51.93 83.62C51.18 82.88 50.77 81.86 50.77 80.81V74.85H38.84Z" fill="white"/>
<path d="M65.84 119.48C65.48 120.09 65.09 120.68 64.66 121.24V132.46H69.44L65.84 119.48Z" fill="white"/>
<path d="M41.73 35.17C39.05 35.36 36.48 36.3 34.31 37.88C33.75 38.29 33.22 38.74 32.72 39.22C33.1 39.16 33.48 39.12 33.87 39.1C35.8 39.11 37.67 39.73 39.2 40.89C40.74 42.05 41.86 43.67 42.4 45.52C43.96 45.03 45.62 45.03 47.18 45.52C47.45 44.59 47.86 43.71 48.41 42.91C45.85 40.65 43.6 38.04 41.73 35.17Z" fill="white"/>
<path d="M37.38 44.53C36.45 43.6 35.19 43.08 33.87 43.08C32.55 43.08 31.29 43.6 30.36 44.53C29.43 45.46 28.91 46.72 28.91 48.04C28.91 49.36 29.43 50.62 30.36 51.55C31.29 52.48 32.55 53 33.87 53C35.19 53 36.45 52.48 37.38 51.55C38.31 50.62 38.83 49.36 38.83 48.04C38.84 46.72 38.31 45.46 37.38 44.53Z" fill="white"/>
<path d="M19.77 55.66C18.24 56.33 16.96 57.47 16.11 58.91C15.26 60.35 14.89 62.02 15.04 63.68C15.3 65.7 16.29 67.55 17.83 68.88C19.37 70.21 21.35 70.92 23.38 70.88H32.94C27.89 67.16 24.92 61.26 24.93 54.99V45.06C24.93 44.85 24.97 44.65 25.03 44.45L25.23 43.81C26.47 40.13 28.83 36.92 31.98 34.65C35.13 32.38 38.92 31.16 42.8 31.15C43.5 31.15 44.14 31.51 44.5 32.11C46.36 35.17 48.69 37.92 51.4 40.25C52.71 39.5 54.2 39.1 55.71 39.09C58.08 39.09 60.35 40.04 62.03 41.71C63.71 43.39 64.65 45.66 64.65 48.03C64.65 48.23 64.6 48.41 64.59 48.61C64.62 48.75 64.64 48.88 64.65 49.03V54.99C64.66 61.26 61.69 67.16 56.65 70.88H66.2C68.24 70.92 70.22 70.21 71.76 68.88C73.3 67.55 74.3 65.7 74.55 63.68C74.7 62.02 74.33 60.35 73.48 58.91C72.63 57.47 71.35 56.34 69.82 55.67C69.1 55.35 68.63 54.64 68.63 53.85V45.07C68.63 36.55 64.09 28.69 56.71 24.43C49.33 20.17 40.25 20.17 32.87 24.43C25.49 28.69 20.95 36.56 20.95 45.07V53.85C20.96 54.63 20.49 55.35 19.77 55.66Z" fill="white"/>
<path d="M52.21 51.55C53.14 52.48 54.4 53 55.72 53C57.04 53 58.3 52.48 59.23 51.55C60.16 50.62 60.68 49.36 60.68 48.04C60.68 46.72 60.16 45.46 59.23 44.53C58.3 43.6 57.04 43.08 55.72 43.08C54.4 43.08 53.14 43.6 52.21 44.53C51.28 45.46 50.76 46.72 50.76 48.04C50.76 49.36 51.28 50.62 52.21 51.55Z" fill="white"/>
<path d="M24.93 84.79C22.82 84.79 20.8 85.63 19.31 87.12C17.82 88.61 16.98 90.63 16.98 92.74V106.64H21.81C22.66 102.93 24.71 99.6 27.63 97.17L30.17 100.22C27.41 102.52 25.68 105.82 25.36 109.39C25.04 112.96 26.14 116.52 28.44 119.27C28.74 119.63 28.9 120.08 28.9 120.54V132.46H60.68V120.54C60.67 120.08 60.83 119.63 61.12 119.26C62.7 117.37 63.74 115.08 64.1 112.64C64.34 111.06 64.3 109.44 63.98 107.87C63.36 104.87 61.74 102.18 59.39 100.21L61.93 97.15C64.45 99.26 66.32 102.02 67.34 105.14L74.09 103.75L75.48 100.3C75.56 100.12 75.64 99.97 75.72 99.81L74.13 91.27C73.79 89.44 72.82 87.79 71.4 86.61C69.97 85.42 68.17 84.77 66.32 84.77H59.52C57.93 88.71 54.83 91.84 50.91 93.48C46.99 95.12 42.58 95.12 38.66 93.48C34.74 91.84 31.64 88.71 30.05 84.77L24.93 84.79Z" fill="white"/>
<path d="M52.28 56.29C49.53 55.14 47.53 52.69 46.96 49.77C46.33 49.32 45.57 49.08 44.8 49.08C44.03 49.08 43.27 49.32 42.64 49.77C42.07 52.7 40.07 55.14 37.32 56.29C34.57 57.44 31.42 57.14 28.94 55.49C29.02 58.36 29.88 61.16 31.43 63.59C32.98 66.01 35.16 67.96 37.74 69.24C42.2 71.41 47.4 71.41 51.86 69.24C54.44 67.97 56.62 66.02 58.17 63.59C59.72 61.17 60.58 58.37 60.65 55.49C58.17 57.14 55.03 57.44 52.28 56.29ZM48.77 62.94H45.27C42.85 62.94 40.45 62.52 38.17 61.7L39.51 57.97C41.36 58.63 43.31 58.97 45.27 58.96H48.77V62.94Z" fill="white"/>
<path d="M21.36 110.61H16.99V132.46H24.94V121.24C22.6 118.19 21.34 114.45 21.36 110.61Z" fill="white"/>
<path d="M179.37 81.44L182.32 84.39L179.37 86.6V81.44ZM191.48 83.87C191.59 83.62 191.73 83.39 191.92 83.2L196.57 78.55C196.23 78.59 195.89 78.62 195.56 78.63H183.13C182.79 78.62 182.45 78.59 182.12 78.55L186.77 83.2C186.96 83.39 187.11 83.62 187.2 83.87H187.21L189.35 89.21L191.48 83.87ZM179.37 98.57H187.35V94.97L184.47 87.77L179.37 91.59V98.57ZM174.51 61.73C173.76 59.49 173.39 57.15 173.39 54.79V51.09C174.4 52.69 176 53.82 177.85 54.21C179.7 54.61 181.63 54.24 183.2 53.19C183.69 52.86 184.28 52.68 184.87 52.68H193.81C194.4 52.68 194.98 52.86 195.48 53.18L195.83 53.42C197.31 54.41 199.12 54.79 200.88 54.5C202.64 54.2 204.22 53.25 205.3 51.83V54.79C205.3 57.15 204.92 59.49 204.18 61.73L201.24 70.54C200.84 71.73 200.08 72.77 199.06 73.5C198.04 74.23 196.82 74.63 195.56 74.63H183.13C181.87 74.63 180.65 74.23 179.63 73.5C178.61 72.77 177.85 71.73 177.45 70.54L174.51 61.73ZM183.36 60.67H187.07C190.3 60.73 193.49 59.95 196.32 58.4L194.33 54.96C192.1 56.14 189.6 56.73 187.07 56.68H183.36V60.67ZM176.69 48.85L173.39 38.43V36.74C173.39 34.5 173.87 32.29 174.79 30.25C175.61 30.58 176.49 30.76 177.38 30.76H204.12C204.89 32.66 205.29 34.69 205.3 36.74V38.45L202.18 49.35C201.24 50.68 199.41 51.02 198.05 50.12L197.7 49.88C196.55 49.11 195.2 48.7 193.82 48.7H188.13L191.25 39.36L187.46 38.1L183.9 48.77C182.86 48.92 181.87 49.29 181 49.87C180.3 50.34 179.44 50.49 178.62 50.29C177.79 50.11 177.09 49.58 176.69 48.85ZM195.33 41.73C195.33 42.94 196.06 44.03 197.18 44.49C198.3 44.95 199.58 44.7 200.44 43.84C201.3 42.98 201.55 41.7 201.09 40.58C200.63 39.46 199.54 38.73 198.33 38.73C196.66 38.74 195.33 40.08 195.33 41.73ZM177.38 41.73C177.38 42.94 178.11 44.03 179.23 44.49C180.35 44.95 181.63 44.7 182.49 43.84C183.35 42.98 183.6 41.7 183.14 40.58C182.68 39.46 181.59 38.73 180.38 38.73C178.72 38.74 177.38 40.08 177.38 41.73ZM202.55 26.77C201.71 24.98 200.37 23.47 198.7 22.41C197.03 21.35 195.1 20.79 193.12 20.78H192.85L196.44 26.76L202.55 26.77ZM213.27 44.72C213.27 43.66 212.85 42.65 212.1 41.9C211.35 41.15 210.34 40.73 209.28 40.73V48.71C210.34 48.71 211.35 48.29 212.1 47.54C212.85 46.79 213.27 45.78 213.27 44.72ZM177.38 26.77H181.84L178.25 20.79H177.38C175.73 20.79 174.39 22.13 174.39 23.78C174.39 25.43 175.72 26.77 177.38 26.77ZM191.8 26.77L188.21 20.79H182.89L186.48 26.77H191.8ZM203.3 90.59V98.57H207.29V79.78L203.3 79.02V90.59ZM155.3 124.49H153.45V132.47H163.14L177.52 128.3L168.99 126.45L155.3 124.49ZM168.51 112.33L156.96 106.55H137.49V120.51H155.44C155.53 120.51 155.63 120.52 155.72 120.53L169.68 122.52L215.48 132.47H227.23C228.29 132.47 229.3 132.05 230.05 131.3C230.8 130.55 231.22 129.54 231.22 128.48V116.39L169.27 112.52C169.01 112.51 168.75 112.44 168.51 112.33ZM143.47 132.47H149.45V124.49H143.47V132.47ZM223.1 82.73L211.28 80.52V100.31L212.83 106.52L213.27 106.3V100.55H217.26V104.3L220.36 102.75C220.74 102.56 221.16 102.5 221.58 102.57L231.22 104.18V92.53C231.22 90.2 230.41 87.95 228.93 86.16C227.45 84.38 225.38 83.17 223.1 82.73ZM149.46 102.55V72.64H143.48V102.55H149.46ZM212.37 111.22L231.22 112.4V108.23L221.56 106.62L212.37 111.22ZM169.4 48.71V40.74C168.31 40.69 167.24 41.08 166.45 41.83C165.66 42.58 165.21 43.63 165.21 44.72C165.21 45.81 165.66 46.86 166.45 47.61C167.24 48.37 168.31 48.76 169.4 48.71ZM182.84 109.37L208.78 108.55L209.18 108.35L207.73 102.55H170.96L169.51 108.35L169.93 108.56L182.84 109.37ZM175.38 90.59V79.02C175.1 79.07 174.82 79.13 174.48 79.19L173.86 79.3C173.62 79.34 173.41 79.39 173.19 79.44C172.79 79.5 172.56 79.55 172.33 79.59L171.38 79.78V98.57H175.37V90.59H175.38ZM199.31 81.44L196.36 84.39L199.31 86.6V81.44ZM199.31 91.59L194.21 87.77L191.33 94.97V98.57H199.31V91.59ZM165.85 106.53L167.4 100.32V80.53C163.57 81.24 159.33 82.04 155.58 82.74C154.84 82.89 154.12 83.13 153.44 83.44V102.56H157.43C157.74 102.56 158.04 102.63 158.32 102.76L161.42 104.32V100.57H165.41V106.32L165.85 106.53ZM151.45 68.65H161.42V64.66H155.44C155.05 64.66 154.66 64.54 154.33 64.33L148.86 60.68H131.51V68.66L151.45 68.65Z" fill="white"/>
</g>
<defs>
<clipPath id="clip0_1_23">
<rect width="244" height="152" fill="white"/>
</clipPath>
</defs>
</svg>
