<?xml version="1.0" encoding="iso-8859-1"?>
<!-- Generator: Adobe Illustrator 16.0.0, SVG Export Plug-In . SVG Version: 6.00 Build 0)  -->
<!DOCTYPE svg PUBLIC "-//W3C//DTD SVG 1.1//EN" "http://www.w3.org/Graphics/SVG/1.1/DTD/svg11.dtd">
<svg version="1.1" id="Capa_1" xmlns="http://www.w3.org/2000/svg" xmlns:xlink="http://www.w3.org/1999/xlink" x="0px" y="0px"
	 width="270.343px" height="270.342px" viewBox="0 0 270.343 270.342" style="enable-background:new 0 0 270.343 270.342;"
	 xml:space="preserve">
<g>
	<g>
		<g>
			<path d="M45.775,87.412c-24.004,0-43.547-19.533-43.547-43.541c0-24.004,19.542-43.532,43.547-43.532
				c24.007,0,43.535,19.527,43.535,43.532C89.31,67.878,69.788,87.412,45.775,87.412z"/>
		</g>
		<g>
			<path d="M136.307,87.073c-23.992,0-43.535-19.534-43.535-43.538C92.771,19.528,112.314,0,136.307,0
				c24.004,0,43.544,19.528,43.544,43.535C179.851,67.539,160.311,87.073,136.307,87.073z"/>
		</g>
		<g>
			<path d="M225.324,87.073c-24.007,0-43.534-19.534-43.534-43.538C181.79,19.528,201.317,0,225.324,0
				c24.001,0,43.547,19.528,43.547,43.535C268.871,67.539,249.325,87.073,225.324,87.073z"/>
		</g>
		<g>
			<path d="M45.006,178.462c-24.004,0-43.535-19.539-43.535-43.537c0-24.011,19.531-43.535,43.535-43.535
				c23.992,0,43.535,19.524,43.535,43.535C88.541,158.923,69.008,178.462,45.006,178.462z"/>
		</g>
		<g>
			<path d="M135.55,178.126c-24.004,0-43.547-19.54-43.547-43.538c0-24.007,19.543-43.535,43.547-43.535
				s43.531,19.528,43.531,43.535C179.081,158.586,159.554,178.126,135.55,178.126z"/>
		</g>
		<g>
			<path d="M225.324,178.126c-24.007,0-43.534-19.54-43.534-43.538c0-24.007,19.527-43.535,43.534-43.535
				c24.001,0,43.547,19.528,43.547,43.535C268.871,158.586,249.325,178.126,225.324,178.126z"/>
		</g>
		<g>
			<path d="M45.775,270.342c-24.004,0-43.547-19.534-43.547-43.541s19.542-43.535,43.547-43.535
				c24.007,0,43.535,19.528,43.535,43.535S69.788,270.342,45.775,270.342z"/>
		</g>
		<g>
			<path d="M136.307,270c-23.992,0-43.535-19.527-43.535-43.535c0-24.007,19.543-43.534,43.535-43.534
				c24.004,0,43.544,19.527,43.544,43.534C179.851,250.472,160.311,270,136.307,270z"/>
		</g>
		<g>
			<path d="M225.324,270c-24.007,0-43.534-19.527-43.534-43.535c0-24.007,19.527-43.534,43.534-43.534
				c24.001,0,43.547,19.527,43.547,43.534C268.871,250.472,249.325,270,225.324,270z"/>
		</g>
	</g>
</g>
<g>
</g>
<g>
</g>
<g>
</g>
<g>
</g>
<g>
</g>
<g>
</g>
<g>
</g>
<g>
</g>
<g>
</g>
<g>
</g>
<g>
</g>
<g>
</g>
<g>
</g>
<g>
</g>
<g>
</g>
</svg>
