<svg xmlns="http://www.w3.org/2000/svg" width="37.88" height="47.712" viewBox="0 0 37.88 47.712">
  <g id="Grupo_40" data-name="Grupo 40" transform="translate(-438.475 -504.685)">
    <path id="Trazado_17" data-name="Trazado 17" d="M475.4,505.221a2.514,2.514,0,0,0-3.7.688L456.5,530.571a.6.6,0,0,1-.793.212l-5.5-3.546a.582.582,0,0,0-.794.159l-1.164,1.8a.583.583,0,0,0,.158.794l15.4,9.844a.583.583,0,0,0,.794-.159l1.164-1.8a.583.583,0,0,0-.158-.794l-5.5-3.546a.539.539,0,0,1-.159-.794l16.036-24.027a2.759,2.759,0,0,0-.583-3.493Z" fill="#2423CA"/>
    <path id="Trazado_18" data-name="Trazado 18" d="M462.008,540.309l-13.125-8.415a.674.674,0,0,0-.635,0,43.953,43.953,0,0,0-9.738,8.256.131.131,0,0,0,.053.212l2.646,1.694a.731.731,0,0,0,.953-.106l1.852-2.011c.106-.106.265,0,.212.158l-1.112,3.017a.2.2,0,0,0,.053.159l1.27.794c.053.052.159,0,.212-.053a8.974,8.974,0,0,1,2.7-4.181c.053-.053.106,0,.106.053a11.649,11.649,0,0,0-1.747,4.922c0,.052.053.052.053.105l1.217.794a.1.1,0,0,0,.159,0l1.958-1.8c.106-.106.265,0,.212.159l-.794,2.593a.2.2,0,0,0,.053.159l1.006.635a.1.1,0,0,0,.158,0c.477-.477,2.964-3.017,5.61-3.493.106,0,.212.158.106.211a34.921,34.921,0,0,0-4.128,4.234c-.053.053,0,.159.053.212l2.54,1.588c.053.052.159,0,.212-.053l.635-1.006.317-.476a.37.37,0,0,0,.106-.212c0-.052.053-.158.106-.158s0,.158,0,.211c0,.106-.053.159-.053.265-.053.265-.106.529-.159.847l-.211,1.217a.2.2,0,0,0,.053.159l2.17,1.376c.053.052.158,0,.211-.106.265-1.112,1.853-7.039,4.763-11.062a.541.541,0,0,0-.052-.9Z" fill="#2423CA"/>
    <path id="Trazado_19" data-name="Trazado 19" d="M451.476,518.4c-.052-.159-.264-.159-.264,0a4.918,4.918,0,0,1-2.17,2.8.149.149,0,0,0,0,.264,4.63,4.63,0,0,1,2.17,2.8c.053.159.264.159.264,0a4.912,4.912,0,0,1,2.17-2.8.149.149,0,0,0,0-.264,4.846,4.846,0,0,1-2.17-2.8Z" fill="#2423CA"/>
    <path id="Trazado_20" data-name="Trazado 20" d="M466.242,541.526a.11.11,0,0,0-.211,0,3.642,3.642,0,0,1-1.588,2.064.11.11,0,0,0,0,.212,3.289,3.289,0,0,1,1.588,2.064.11.11,0,0,0,.211,0,3.645,3.645,0,0,1,1.588-2.064.11.11,0,0,0,0-.212A3.645,3.645,0,0,1,466.242,541.526Z" fill="#2423CA"/>
    <path id="Trazado_21" data-name="Trazado 21" d="M446.237,521.521a.11.11,0,0,0-.212,0,3.449,3.449,0,0,1-1.482,1.958c-.052.053-.052.159,0,.159a3.094,3.094,0,0,1,1.482,1.958.11.11,0,0,0,.212,0,3.453,3.453,0,0,1,1.482-1.958c.053-.053.053-.159,0-.159A3.3,3.3,0,0,1,446.237,521.521Z" fill="#2423CA"/>
  </g>
</svg>
