<svg xmlns="http://www.w3.org/2000/svg" width="50.532" height="44.248" viewBox="0 0 50.532 44.248">
  <g id="Grupo_37" data-name="Grupo 37" transform="translate(-434.075 -599.419)">
    <g id="Grupo_3" data-name="Grupo 3">
      <path id="Trazado_22" data-name="Trazado 22" d="M474.589,627.135l-4.547,9.894,3.134,1.66,4.425-10.2Zm-3.933,9.833,2.151,1.106,1.106-2.458Z" fill="#fff" fill-rule="evenodd"/>
      <path id="Trazado_23" data-name="Trazado 23" d="M478.953,626.951l5.654,2.7-6.084,14.012-5.654-2.95Zm-4.425,13.766,3.687,1.782,1.9-3.995Z" fill="#fff" fill-rule="evenodd"/>
      <path id="Trazado_24" data-name="Trazado 24" d="M458.8,602.246v23.783a1.783,1.783,0,0,1-3.565,0V602.246Zm-1.721,22.493a1.167,1.167,0,1,1-1.168,1.167A1.166,1.166,0,0,1,457.075,624.739Z" fill="#fff" fill-rule="evenodd"/>
      <path id="Trazado_25" data-name="Trazado 25" d="M476.064,621.481l-16.531-5.408v9.956a2.531,2.531,0,0,1-2.52,2.52,2.492,2.492,0,0,1-2.519-2.52V614.476l-12.107-3.995s-1.843-.8-2.458.43c-.676,1.229-5.654,11.308-5.654,11.308a2.218,2.218,0,0,0,.984,2.888c1.9,1.106,31.526,17.269,31.526,17.269ZM442.51,615.09a1.536,1.536,0,1,1-1.536,1.537A1.521,1.521,0,0,1,442.51,615.09Z" fill="#fff" fill-rule="evenodd"/>
      <path id="Trazado_26" data-name="Trazado 26" d="M437.286,599.419h40.007v2.336H437.286Z" fill="#fff" fill-rule="evenodd"/>
    </g>
  </g>
</svg>
