<svg xmlns="http://www.w3.org/2000/svg" width="46.559" height="45.458" viewBox="0 0 46.559 45.458">
  <g id="Grupo_39" data-name="Grupo 39" transform="translate(-437.07 -251.407)">
    <path id="Trazado_8" data-name="Trazado 8" d="M460.2,251.407h-1.323a.826.826,0,0,0-.833.833v43.792a.826.826,0,0,0,.833.833H460.2a.826.826,0,0,0,.832-.833V252.24A.9.9,0,0,0,460.2,251.407Z" fill="#ffffff"/>
    <path id="Trazado_9" data-name="Trazado 9" d="M479.1,255.962a4.555,4.555,0,1,1-4.556-4.555,4.556,4.556,0,0,1,4.556,4.555" fill="#ffffff"/>
    <path id="Trazado_10" data-name="Trazado 10" d="M483.464,283.688l-2.695-6.025h.147a1.584,1.584,0,0,0,1.568-1.813L479.741,263.6a2.083,2.083,0,0,0-1.911-1.812h-6.417a2.083,2.083,0,0,0-1.91,1.812L466.76,275.85a1.584,1.584,0,0,0,1.568,1.813h.147l-2.7,6.025c-.44,1.078.147,1.665,1.029,1.665l4.507.147.734,9.454a2.068,2.068,0,0,0,2.009,1.911h1.176a2,2,0,0,0,2.008-1.911l.735-9.5,4.506-.1a1.069,1.069,0,0,0,.98-1.665Z" fill="#ffffff"/>
    <path id="Trazado_11" data-name="Trazado 11" d="M449.125,261.743,448,261.694h-6.662l-1.176.049a3.274,3.274,0,0,0-3.086,3.428l.637,10.532a2.566,2.566,0,0,0,2.547,2.4h.147l1.078,16.361c.1,1.518.979,2.351,2.008,2.351H445.6c1.078,0,1.959-.833,2.009-2.351l1.077-16.361h.2a2.534,2.534,0,0,0,2.547-2.4l.637-10.532a3.04,3.04,0,0,0-2.939-3.428Z" fill="#ffffff"/>
    <path id="Trazado_12" data-name="Trazado 12" d="M449.174,255.962a4.556,4.556,0,1,1-4.556-4.555,4.556,4.556,0,0,1,4.556,4.555" fill="#ffffff"/>
  </g>
</svg>
