<svg xmlns="http://www.w3.org/2000/svg" width="48.515" height="34.159" viewBox="0 0 48.515 34.159">
  <g id="Grupo_38" data-name="Grupo 38" transform="translate(-436.092 -432.603)">
    <g id="Grupo_2" data-name="Grupo 2">
      <path id="Trazado_14" data-name="Trazado 14" d="M474.674,451.111a20.339,20.339,0,0,0-28.729,0l-.578.577c-.561.678-.207,2.048.789,3.044l.769.768c1,1,2.252,1.242,2.787.542l.582-.582a14.179,14.179,0,0,1,20.028,0l.582.582c.536.7,1.79.456,2.788-.54l.768-.769c1-1,1.354-2.37.792-3.045l-.578-.579Z" fill="#ffffff"/>
      <path id="Trazado_15" data-name="Trazado 15" d="M463.935,458.008a5.128,5.128,0,1,1-7.252,0,5.127,5.127,0,0,1,7.252,0" fill="#ffffff"/>
      <path id="Trazado_16" data-name="Trazado 16" d="M484.463,443.154l-.39-.409c-.166-.176-.335-.352-.508-.525a32.926,32.926,0,0,0-46.512,0c-.1.1-.2.2-.3.308l-.463.479c-.478.544-.053,1.8.943,2.8l.739.739c.995,1,2.211,1.348,2.7.778l.482-.5c.082-.086.167-.17.251-.256a26.767,26.767,0,0,1,37.809,0c.174.175.346.352.513.531l.385.408c.4.466,1.542.032,2.539-.965l.737-.738c1-1,1.481-2.191,1.075-2.654Z" fill="#ffffff"/>
    </g>
  </g>
</svg>
