<svg xmlns="http://www.w3.org/2000/svg" width="47.698" height="24.137" viewBox="0 0 47.698 24.137">
  <g id="Grupo_31" data-name="Grupo 31" transform="translate(-439.835 -1097.47)">
    <path id="Trazado_45" data-name="Trazado 45" d="M486.958,1097.47H440.41a.569.569,0,0,0-.575.575v4.6a.569.569,0,0,0,.575.575h1.724v17.815a.569.569,0,0,0,.574.575h5.172a.569.569,0,0,0,.575-.575v-17.815h30.458v17.815a.569.569,0,0,0,.574.575h5.172a.569.569,0,0,0,.575-.575v-17.815h1.724a.569.569,0,0,0,.575-.575v-4.6a.569.569,0,0,0-.575-.575Zm-39.652,22.987h-4.023v-17.24h4.023Zm36.778,0h-4.022v-17.24h4.022Zm2.3-18.389h-45.4v-3.448h45.4Z" fill="#fff"/>
  </g>
</svg>
