<svg xmlns="http://www.w3.org/2000/svg" width="38.939" height="48.197" viewBox="0 0 38.939 48.197">
  <g id="Grupo_36" data-name="Grupo 36" transform="translate(-438.571 -672.723)">
    <path id="Trazado_27" data-name="Trazado 27" d="M457.978,698.467c5.223,0,9.472-5.775,9.472-12.872s-4.249-12.872-9.472-12.872-9.471,5.774-9.471,12.872S452.755,698.467,457.978,698.467Zm-7.5-13.787c2.128.029,8.159-.266,10.843-4.347,0,0,1.546,2.617,4.037,3.138a15.671,15.671,0,0,1,.145,2.124c0,6.026-3.377,10.929-7.529,10.929s-7.529-4.9-7.529-10.929c0-.309.015-.613.033-.915Z" fill="#fff"/>
    <path id="Trazado_28" data-name="Trazado 28" d="M458.762,700.788h-1.506a.99.99,0,0,0-.753.347l-.47.552a.988.988,0,0,0-.08,1.174l.523.817a.99.99,0,0,0,.833.456h1.4a.99.99,0,0,0,.833-.456l.523-.817a.989.989,0,0,0-.08-1.174l-.471-.552A.987.987,0,0,0,458.762,700.788Z" fill="#fff"/>
    <path id="Trazado_29" data-name="Trazado 29" d="M465.613,700.449l-4.556,20.47H477.51c0-9.591-5.026-17.763-11.9-20.47Z" fill="#fff"/>
    <path id="Trazado_30" data-name="Trazado 30" d="M450.427,700.464c-6.849,2.723-11.856,10.881-11.856,20.454H454.9l-4.429-20.47Z" fill="#fff"/>
    <path id="Trazado_31" data-name="Trazado 31" d="M458.578,705.592h-1.2a.932.932,0,0,0-.926.832l-1.552,14.5h6.16l-1.552-14.5a.932.932,0,0,0-.927-.832Z" fill="#fff"/>
  </g>
</svg>
