<svg xmlns="http://www.w3.org/2000/svg" width="33.326" height="55.797" viewBox="0 0 33.326 55.797">
  <g id="Grupo_33" data-name="Grupo 33" transform="translate(-447.66 -997.053)">
    <g id="Grupo_4" data-name="Grupo 4">
      <path id="Trazado_37" data-name="Trazado 37" d="M454.867,1052.85h-3.65a.87.87,0,0,1-.872-.872v-19.6a.87.87,0,0,1,.872-.872h3.65a.87.87,0,0,1,.872.872v19.6A.872.872,0,0,1,454.867,1052.85Zm-2.779-1.744H454v-17.862h-1.908Z" fill="#fff"/>
      <path id="Trazado_38" data-name="Trazado 38" d="M477.43,1052.85h-3.65a.87.87,0,0,1-.872-.872v-19.6a.87.87,0,0,1,.872-.872h3.65a.87.87,0,0,1,.872.872v19.6A.87.87,0,0,1,477.43,1052.85Zm-2.778-1.744h1.907v-17.862h-1.907Z" fill="#fff"/>
      <path id="Trazado_39" data-name="Trazado 39" d="M477.858,1033.245h-27.07a3.128,3.128,0,1,1,0-6.255h27.07a3.128,3.128,0,1,1,0,6.255Zm-27.07-4.512a1.384,1.384,0,1,0,0,2.768h27.07a1.384,1.384,0,1,0,0-2.768Z" fill="#fff"/>
      <path id="Trazado_40" data-name="Trazado 40" d="M478.342,1013.49H450.3a.868.868,0,0,1-.871-.871v-10.335a5.237,5.237,0,0,1,5.23-5.231h19.318a5.237,5.237,0,0,1,5.231,5.231v10.335a.871.871,0,0,1-.872.871Zm-27.165-1.743h26.292v-9.463a3.493,3.493,0,0,0-3.487-3.487H454.664a3.492,3.492,0,0,0-3.487,3.487Z" fill="#fff"/>
      <path id="Trazado_41" data-name="Trazado 41" d="M453.041,1028.732a.87.87,0,0,1-.872-.872v-15.241a.872.872,0,1,1,1.744,0v15.239a.87.87,0,0,1-.872.875Z" fill="#fff"/>
      <path id="Trazado_42" data-name="Trazado 42" d="M460.564,1028.732a.87.87,0,0,1-.872-.872v-15.241a.872.872,0,1,1,1.744,0v15.239a.873.873,0,0,1-.872.875Z" fill="#fff"/>
      <path id="Trazado_43" data-name="Trazado 43" d="M468.083,1028.732a.87.87,0,0,1-.872-.872v-15.241a.872.872,0,1,1,1.744,0v15.239a.87.87,0,0,1-.872.875Z" fill="#fff"/>
      <path id="Trazado_44" data-name="Trazado 44" d="M475.606,1028.732a.869.869,0,0,1-.871-.872v-15.241a.872.872,0,1,1,1.743,0v15.239a.872.872,0,0,1-.872.875Z" fill="#fff"/>
    </g>
  </g>
</svg>
