<svg xmlns="http://www.w3.org/2000/svg" width="54.679" height="51.393" viewBox="0 0 54.679 51.393">
  <g id="Grupo_42" data-name="Grupo 42" transform="translate(-431.042 -160.598)">
    <path id="Trazado_1" data-name="Trazado 1" d="M448.415,201.058a.932.932,0,0,0-.932.932v2.691a.932.932,0,1,0,1.864,0V201.99A.932.932,0,0,0,448.415,201.058Z" fill="#2423CA"/>
    <path id="Trazado_2" data-name="Trazado 2" d="M451.754,199.717a.931.931,0,0,0-.932.931v2.691a.932.932,0,0,0,1.864,0v-2.691A.932.932,0,0,0,451.754,199.717Z" fill="#2423CA"/>
    <path id="Trazado_3" data-name="Trazado 3" d="M452.686,182.059v-2.691a.932.932,0,0,0-1.864,0v2.691a.932.932,0,0,0,1.864,0Z" fill="#2423CA"/>
    <path id="Trazado_4" data-name="Trazado 4" d="M456.025,183.4v-2.69a.932.932,0,1,0-1.864,0v2.69a.932.932,0,1,0,1.864,0Z" fill="#2423CA"/>
    <path id="Trazado_5" data-name="Trazado 5" d="M468.346,201.058a.932.932,0,0,0-.932.932v2.691a.932.932,0,0,0,1.864,0V201.99A.932.932,0,0,0,468.346,201.058Z" fill="#2423CA"/>
    <path id="Trazado_6" data-name="Trazado 6" d="M465.007,199.717a.932.932,0,0,0-.932.931v2.691a.932.932,0,1,0,1.864,0v-2.691A.931.931,0,0,0,465.007,199.717Z" fill="#2423CA"/>
    <path id="Trazado_7" data-name="Trazado 7" d="M485.691,189.413a.136.136,0,0,0-.008-.039.886.886,0,0,0-.076-.186c0-.006-.008-.012-.011-.018s-.023-.031-.034-.048h0a.969.969,0,0,0-.105-.134l-.048-.045a.931.931,0,0,0-.157-.115c-.008,0-.014-.011-.021-.015L472.567,182V168.483a.922.922,0,0,0-.032-.228v0a.938.938,0,0,0-.066-.169.405.405,0,0,0-.022-.035l-.035-.054a.939.939,0,0,0-.109-.134.513.513,0,0,0-.04-.041.9.9,0,0,0-.186-.132l-.006,0-13.256-6.977a.936.936,0,0,0-.87,0l-13.252,6.977-.006,0a.9.9,0,0,0-.186.133c-.015.013-.027.027-.04.04a1.007,1.007,0,0,0-.109.135l-.035.054c-.01.019-.016.022-.022.035a.938.938,0,0,0-.066.169v0a.923.923,0,0,0-.032.228v9.889a.933.933,0,0,0,1.865,0v-8.343l11.9,6.083a.928.928,0,0,0,.849,0l5.27-2.695v2.463a.932.932,0,1,0,1.865,0v-3.417l4.763-2.435V182l-11.393,6.081v-9.01a.932.932,0,0,0-1.864,0v9.01l-11.884-6.344a.928.928,0,0,0-.88,0l-13.141,7.07-.011.006-.015.011h0a.921.921,0,0,0-.164.12.62.62,0,0,0-.045.044.887.887,0,0,0-.108.135c-.01.016-.023.031-.033.047s-.008.012-.011.018h0a.886.886,0,0,0-.076.186c0,.013,0,.026-.009.039h0a.908.908,0,0,0-.026.186c0,.011,0,.021,0,.032v13.657a.93.93,0,0,0,.458.8l13.154,7.773c.011.007.023.009.034.015h0a.887.887,0,0,0,.162.069l.054.017a1.014,1.014,0,0,0,.22.03h0a.9.9,0,0,0,.22-.03.534.534,0,0,0,.053-.016h0a.819.819,0,0,0,.16-.066.259.259,0,0,0,.035-.014l12.784-7.4,12.787,7.4c.011.007.024.008.036.015a1.087,1.087,0,0,0,.155.062c.019.006.038.013.057.018h0a.952.952,0,0,0,.219.028.935.935,0,0,0,.223-.03c.018,0,.037-.011.055-.017a.863.863,0,0,0,.163-.068c.011-.006.023-.009.033-.015l13.155-7.773h0a.932.932,0,0,0,.458-.8V189.633a.285.285,0,0,0-.005-.031.861.861,0,0,0-.025-.189Zm-29.279.226-11.284,6.109-4.722-2.576,10.5-6.47Zm9.439-2.938,10.5,6.471-4.722,2.575-11.284-6.108Zm12.39,5.442-10.486-6.458,3.878-2.07,11.2,6.027Zm-19.86-29.559,11.23,5.911-4.581,2.341-10.74-6.1Zm0,11.652-11.231-5.741,5.181-2.727,10.714,6.084Zm-13.252,9.379,3.877,2.07-10.485,6.459-4.592-2.5Zm27.438,25.811V200.7a.932.932,0,1,0-1.864,0v8.747l-11.39-6.594v-7.535a.932.932,0,1,0-1.864,0v7.535l-11.39,6.594V200.7a.932.932,0,0,0-1.865,0v8.731l-11.29-6.671V191.2l4.713,2.572v3.532a.932.932,0,0,0,1.865,0v-2.516l5.2,2.836h0a.933.933,0,0,0,.891,0l12.81-6.934,12.811,6.935a.931.931,0,0,0,.89,0l5.2-2.836v2.515h0a.932.932,0,1,0,1.864,0v-3.534l4.713-2.571v11.553Z" fill="#2423CA"/>
  </g>
</svg>
