<svg xmlns="http://www.w3.org/2000/svg" width="56.257" height="56.253" viewBox="0 0 56.257 56.253">
  <g id="Grupo_30" data-name="Grupo 30" transform="translate(-444.813 -1251.491)">
    <path id="Trazado_52" data-name="Trazado 52" d="M445.787,1251.492a.97.97,0,0,0-.974.974v54.312a.969.969,0,0,0,.974.966H485.9a.971.971,0,0,0,.966-.966v-19.972l4.58-4.585a12.932,12.932,0,0,0,.189-.189l8.01-8a4.9,4.9,0,0,0-6.925-6.924l-5.854,5.852v-8.6a.967.967,0,0,0-.059-.324.941.941,0,0,0-.135-.254l0,0-.034-.044,0-.007c-.017-.019-.033-.038-.051-.055l-11.885-11.893h0a.969.969,0,0,0-.687-.286Zm.966,1.94h26.276v10.924a.97.97,0,0,0,.973.968h10.92v9.572l-.256.256-.053.051-11.4,11.407a.962.962,0,0,0-.23.358l-3.106,8.663a.97.97,0,0,0,1.239,1.238l8.662-3.114a.974.974,0,0,0,.359-.221l4.783-4.788v17.059H446.753Zm28.216,1.375,4.293,4.287,4.284,4.289h-8.577Zm21.207,12.79a2.968,2.968,0,0,1,2.091,5.059l-1.987,1.987-4.181-4.181,1.986-1.987a2.947,2.947,0,0,1,2.091-.878Zm-42.257,3.7a.971.971,0,0,0,.1,1.94h23.634a.97.97,0,1,0,0-1.94H454.019a.8.8,0,0,0-.1,0Zm36.814.534,4.178,4.185-4.651,4.654h0a.866.866,0,0,0-.091.09.983.983,0,0,0-.1.1l-11.152,11.152-6.523,2.342,2.342-6.522,11.218-11.22h0l.03-.028Zm-36.811,7.4,0,0a.971.971,0,0,0,.1,1.94h18.307a.97.97,0,1,0,0-1.94H454.019c-.032,0-.064,0-.1,0Zm0,7.934h0a.972.972,0,0,0,.1,1.942h13.546a.971.971,0,1,0,0-1.942H453.918Zm11.291,7.339h0a.976.976,0,0,0-.681.265l-3.07,2.8-3.066-2.8a.972.972,0,0,0-1.309,0l-3.716,3.4a.97.97,0,1,0,1.3,1.432l3.071-2.8,3.065,2.8a.97.97,0,0,0,1.311,0l3.715-3.394a.97.97,0,0,0-.623-1.7Z" fill="#fff"/>
  </g>
</svg>
