<svg xmlns="http://www.w3.org/2000/svg" width="64.193" height="36.991" viewBox="0 0 64.193 36.991">
  <g id="Grupo_32" data-name="Grupo 32" transform="translate(-434.236 -1166.228)">
    <path id="Trazado_46" data-name="Trazado 46" d="M450.872,1180.835a1.139,1.139,0,0,0-.812.2,8.737,8.737,0,0,1-10.144,0,1.137,1.137,0,0,0-.811-.2c-5.005.609-4.869,10.212-4.869,15.148,0,3.449,4.192,3.449,10.752,3.449,2.165,0,4.125,0,5.681-.135v-.338a61.927,61.927,0,0,1,.744-11.226,16.8,16.8,0,0,1,1.961-5.41,3.724,3.724,0,0,0-2.5-1.488Z" fill="#fff"/>
    <path id="Trazado_47" data-name="Trazado 47" d="M451.413,1174.005a6.424,6.424,0,1,1-6.425-6.425,6.424,6.424,0,0,1,6.425,6.425" fill="#fff"/>
    <path id="Trazado_48" data-name="Trazado 48" d="M493.611,1180.835a1.137,1.137,0,0,0-.811.2,8.736,8.736,0,0,1-10.144,0,1.137,1.137,0,0,0-.811-.2,3.876,3.876,0,0,0-2.57,1.488,15.344,15.344,0,0,1,1.961,5.41,61.56,61.56,0,0,1,.744,11.226v.406c1.623.135,3.516.135,5.68.135,6.56,0,10.753,0,10.753-3.449.068-4.937.135-14.607-4.8-15.215Z" fill="#fff"/>
    <path id="Trazado_49" data-name="Trazado 49" d="M494.152,1174.005a6.424,6.424,0,1,1-6.424-6.425,6.424,6.424,0,0,1,6.424,6.425" fill="#fff"/>
    <path id="Trazado_50" data-name="Trazado 50" d="M473.188,1181.647a1.208,1.208,0,0,0-.946.27,10.175,10.175,0,0,1-5.884,1.893,10.009,10.009,0,0,1-5.883-1.893,1.553,1.553,0,0,0-.947-.27c-5.816.676-5.68,11.9-5.68,17.582,0,3.99,4.869,3.99,12.51,3.99,7.574,0,12.511,0,12.511-3.99,0-5.68.067-16.906-5.681-17.582Z" fill="#fff"/>
    <path id="Trazado_51" data-name="Trazado 51" d="M473.8,1173.667a7.439,7.439,0,1,1-7.439-7.439,7.44,7.44,0,0,1,7.439,7.439" fill="#fff"/>
  </g>
</svg>
