<svg xmlns="http://www.w3.org/2000/svg" width="53.094" height="53.094" viewBox="0 0 53.094 53.094">
  <g id="Grupo_41" data-name="Grupo 41" transform="translate(-434.075 -338.622)">
    <path id="Trazado_13" data-name="Trazado 13" d="M460.622,338.622a26.547,26.547,0,1,0,26.547,26.547A26.573,26.573,0,0,0,460.622,338.622Zm0,3.54a23.008,23.008,0,1,1-23.008,23.007,22.981,22.981,0,0,1,23.008-23.007Zm-8.443,9.439a1.77,1.77,0,0,0-1.439,1.069l-3.318,7.724c-.013.031-.025.061-.037.093a5.575,5.575,0,0,0-2.1,4.351v5.641a1.77,1.77,0,0,0,1.77,1.769v3.54a1.77,1.77,0,0,0,1.77,1.77h5.9a1.77,1.77,0,0,0,1.77-1.77v-3.54h8.259v3.54a1.769,1.769,0,0,0,1.769,1.77h5.9a1.77,1.77,0,0,0,1.77-1.77v-3.54a1.77,1.77,0,0,0,1.77-1.769v-5.641a5.575,5.575,0,0,0-2.1-4.351c-.011-.032-.024-.062-.037-.093L470.5,352.67a1.772,1.772,0,0,0-1.623-1.069H452.363a1.417,1.417,0,0,0-.185,0Zm1.345,3.539h14.2l1.77,4.13H451.755Zm-2.673,7.67h19.542a1.983,1.983,0,0,1,2.028,2.028v3.871h-23.6v-3.871A1.983,1.983,0,0,1,450.851,362.81Zm2.1,1.179a1.77,1.77,0,1,0,1.77,1.77A1.77,1.77,0,0,0,452.953,363.989Zm15.338,0a1.77,1.77,0,1,0,1.77,1.77A1.771,1.771,0,0,0,468.291,363.989Zm-17.7,8.259h2.359v1.77h-2.359Zm17.7,0h2.36v1.77h-2.36Z" fill="#2423CA"/>
  </g>
</svg>
