<svg xmlns="http://www.w3.org/2000/svg" width="37.845" height="45.875" viewBox="0 0 37.845 45.875">
  <g id="Grupo_35" data-name="Grupo 35" transform="translate(-442.135 -826.416)">
    <path id="Trazado_33" data-name="Trazado 33" d="M449.941,826.416c-4.468,0-7.806,5.826-7.806,11.035,0,3.471,1.543,6.091,4.263,7.3l-.762,23.091a4.307,4.307,0,1,0,8.61,0l-.761-23.09c2.72-1.211,4.262-3.831,4.262-7.3,0-5.21-3.338-11.035-7.806-11.035Zm2.235,16.755a.975.975,0,0,0-.665.957l.784,23.779a2.355,2.355,0,1,1-4.708,0l.785-23.78a.975.975,0,0,0-.665-.957c-2.334-.784-3.62-2.816-3.62-5.719,0-4.114,2.612-9.083,5.854-9.083s5.854,4.969,5.854,9.083c0,2.9-1.285,4.935-3.619,5.719Z" fill="#fff"/>
    <path id="Trazado_34" data-name="Trazado 34" d="M479.071,827.484a2.494,2.494,0,0,0-2.072-.516,2.521,2.521,0,0,0-1.989,2.5v9.877a.236.236,0,0,1-.243.192h-1.182a.244.244,0,0,1-.244-.244V829.4a2.5,2.5,0,0,0-.772-1.8,2.458,2.458,0,0,0-1.841-.681,2.527,2.527,0,0,0-2.357,2.565v9.8a.244.244,0,0,1-.244.244h-1.182a.235.235,0,0,1-.243-.2v-9.868a2.521,2.521,0,0,0-1.989-2.5,2.488,2.488,0,0,0-2.981,2.436v9.929a7.279,7.279,0,0,0,5.53,7.059l-.711,21.452a4.307,4.307,0,1,0,8.61,0l-.712-21.451a7.279,7.279,0,0,0,5.531-7.059V829.4a2.478,2.478,0,0,0-.909-1.92Zm-1.043,11.849a5.326,5.326,0,0,1-4.7,5.282.977.977,0,0,0-.861,1l.739,22.29a2.355,2.355,0,1,1-4.707,0l.739-22.292a.976.976,0,0,0-.86-1,5.324,5.324,0,0,1-4.7-5.282V829.4a.531.531,0,0,1,.534-.532.613.613,0,0,1,.116.011.584.584,0,0,1,.416.582v9.883a2.173,2.173,0,0,0,2.2,2.137h1.182a2.2,2.2,0,0,0,2.2-2.2v-9.8a.6.6,0,0,1,.5-.615.508.508,0,0,1,.4.146.524.524,0,0,1,.165.386v9.885a2.2,2.2,0,0,0,2.2,2.2h1.182a2.177,2.177,0,0,0,2.2-2.153v-9.868a.583.583,0,0,1,.416-.581.534.534,0,0,1,.649.521Z" fill="#fff"/>
  </g>
</svg>
