<svg xmlns="http://www.w3.org/2000/svg" width="36.173" height="44.208" viewBox="0 0 36.173 44.208">
  <path id="Trazado_54" data-name="Trazado 54" d="M458.8,730.081a56.339,56.339,0,0,0-12.325,1.193,15.426,15.426,0,0,0-3.909,1.382,4.531,4.531,0,0,0-1.256.973,2.3,2.3,0,0,0-.6,1.476v27.13a2.258,2.258,0,0,0,.6,1.46,4.534,4.534,0,0,0,1.256.974,15.388,15.388,0,0,0,3.909,1.381c.609.143,1.276.272,1.963.392l-4.051,6.3a1.006,1.006,0,1,0,1.7,1.083l1.318-2.041h22.8l1.319,2.041a1.006,1.006,0,1,0,1.7-1.083l-4.05-6.3c.686-.12,1.353-.249,1.962-.392a15.374,15.374,0,0,0,3.909-1.381,4.52,4.52,0,0,0,1.256-.974,2.258,2.258,0,0,0,.6-1.46V735.1a2.3,2.3,0,0,0-.6-1.476,4.517,4.517,0,0,0-1.256-.973,15.374,15.374,0,0,0-3.909-1.382,56.333,56.333,0,0,0-12.325-1.193Zm0,2.01a54.577,54.577,0,0,1,11.853,1.146,14.148,14.148,0,0,1,3.407,1.177,2.824,2.824,0,0,1,.722.534c.116.134.094.165.094.157v27.13c0-.008.022.007-.094.141a2.785,2.785,0,0,1-.722.55,14.247,14.247,0,0,1-3.407,1.161,61.032,61.032,0,0,1-23.706,0,14.246,14.246,0,0,1-3.407-1.161,2.8,2.8,0,0,1-.722-.55c-.116-.134-.094-.149-.094-.141V735.1c0,.008-.022-.023.094-.157a2.843,2.843,0,0,1,.722-.534,14.147,14.147,0,0,1,3.407-1.177A54.523,54.523,0,0,1,458.8,732.091Zm-4.521,1.507a3.014,3.014,0,1,0,0,6.029h9.043a3.014,3.014,0,0,0,0-6.029Zm0,2.009h9.043a1.005,1.005,0,0,1,0,2.01h-9.043a1.005,1.005,0,0,1,0-2.01Zm-9.138,5.527a1,1,0,0,0-.91,1.005V754.2a1,1,0,0,0,1.005,1.005h27.129a1,1,0,0,0,1.005-1.005V742.139a1,1,0,0,0-1.005-1.005H445.137Zm1.1,2.009h25.12v10.049h-25.12Zm2.01,13.565a3.014,3.014,0,1,0,3.014,3.015,3.031,3.031,0,0,0-3.014-3.015Zm21.1,0a3.014,3.014,0,1,0,3.014,3.015A3.03,3.03,0,0,0,469.347,756.708Zm-21.1,2.01a1.005,1.005,0,1,1-1.005,1.005A.99.99,0,0,1,448.246,758.718Zm21.1,0a1.005,1.005,0,1,1-1.006,1.005A.99.99,0,0,1,469.347,758.718Zm-18.746,8.07a71.545,71.545,0,0,0,16.391,0l1.915,2.983H448.685Z" transform="translate(-440.709 -730.081)" fill="#fff"/>
</svg>
